<svg id="Ebene_1" data-name="Ebene 1" xmlns="http://www.w3.org/2000/svg" width="65.713mm" height="28.425mm" viewBox="0 0 186.274 80.576">
  <defs>
    <style>
      .cls-1 {
        fill: #9caaa8;
      }
    </style>
  </defs>
  <title>FMI_logo_grey</title>
  <g>
    <path class="cls-1" d="M2.161,51.219v3.57H6.739v1.216H2.161v5.41H.945V50H7.107v1.216Z"/>
    <path class="cls-1" d="M11.713,54.212c-.64,0-1.488.481-1.488,1.857v5.346h-1.2v-8.4h1.2v.768a2.069,2.069,0,0,1,1.5-.768H12.4v1.2Z"/>
    <path class="cls-1" d="M14.176,51.62V49.891h1.473V51.62Zm.144,9.8V53h1.2v8.419Z"/>
    <path class="cls-1" d="M24.338,57.59H19.264v.944A1.715,1.715,0,0,0,21.2,60.375a1.77,1.77,0,0,0,1.905-1.712h1.216A2.98,2.98,0,0,1,21.2,61.576a2.9,2.9,0,0,1-3.153-3.042V55.893A2.917,2.917,0,0,1,21.2,52.868a2.879,2.879,0,0,1,3.137,3.025Zm-1.216-1.7a1.7,1.7,0,0,0-1.921-1.84,1.735,1.735,0,0,0-1.937,1.84v.512h3.858Z"/>
    <path class="cls-1" d="M26.5,55.893a2.841,2.841,0,0,1,3.089-3.025,2.359,2.359,0,0,1,1.889.832V50H32.69V61.415H31.474v-.656a2.483,2.483,0,0,1-1.889.817A2.887,2.887,0,0,1,26.5,58.534Zm1.216,2.641a1.7,1.7,0,0,0,1.873,1.841,1.676,1.676,0,0,0,1.889-1.841V55.893a1.705,1.705,0,0,0-1.889-1.84,1.664,1.664,0,0,0-1.873,1.84Z"/>
    <path class="cls-1" d="M37.937,54.212c-.641,0-1.489.481-1.489,1.857v5.346h-1.2v-8.4h1.2v.768a2.073,2.073,0,0,1,1.505-.768h.672v1.2Z"/>
    <path class="cls-1" d="M40.4,51.62V49.891h1.472V51.62Zm.144,9.8V53h1.2v8.419Z"/>
    <path class="cls-1" d="M50.546,55.8H49.33a1.926,1.926,0,0,0-3.842.1v2.641a1.715,1.715,0,0,0,1.937,1.841,1.771,1.771,0,0,0,1.905-1.712h1.216a2.98,2.98,0,0,1-3.121,2.913,2.9,2.9,0,0,1-3.154-3.042V55.893a3.142,3.142,0,0,1,6.275-.1Z"/>
    <path class="cls-1" d="M57.617,61.415V55.893c0-.832-.176-1.84-1.728-1.84a1.9,1.9,0,0,0-2.049,1.808v5.554h-1.2V50h1.2V53.8a2.66,2.66,0,0,1,2.049-.928,2.7,2.7,0,0,1,2.929,3.025v5.522Z"/>
    <path class="cls-1" d="M64.831,61.415V50h1.537l2.5,6.05L71.345,50h1.569V61.415H71.682V52.308l-2.289,5.6H68.352l-2.288-5.6v9.107Z"/>
    <path class="cls-1" d="M75.47,51.62V49.891h1.473V51.62Zm.145,9.8V53h1.2v8.419Z"/>
    <path class="cls-1" d="M85.633,57.59H80.559v.944A1.715,1.715,0,0,0,82.5,60.375,1.77,1.77,0,0,0,84.4,58.663h1.216A2.98,2.98,0,0,1,82.5,61.576a2.9,2.9,0,0,1-3.153-3.042V55.893A2.917,2.917,0,0,1,82.5,52.868a2.879,2.879,0,0,1,3.137,3.025Zm-1.216-1.7a1.7,1.7,0,0,0-1.921-1.84,1.735,1.735,0,0,0-1.937,1.84v.512h3.858Z"/>
    <path class="cls-1" d="M90.592,61.543a2.818,2.818,0,0,1-3.105-2.88h1.2c0,1.1.752,1.68,1.905,1.68.945,0,1.937-.24,1.937-1.425,0-.544-.4-.848-.945-1.008-.624-.16-1.536-.368-2.128-.512a2.212,2.212,0,0,1-1.841-2.081c0-1.745,1.376-2.433,2.929-2.433a2.779,2.779,0,0,1,3.089,2.721H92.416c-.063-.96-.687-1.537-1.9-1.537-.832,0-1.7.241-1.7,1.249a1.063,1.063,0,0,0,.929.944c.608.144,1.536.337,2.225.545a2.2,2.2,0,0,1,1.76,2.112C93.729,60.839,92.273,61.543,90.592,61.543Z"/>
    <path class="cls-1" d="M101.938,55.8h-1.217a1.926,1.926,0,0,0-3.842.1v2.641a1.715,1.715,0,0,0,1.937,1.841,1.77,1.77,0,0,0,1.905-1.712h1.217a2.981,2.981,0,0,1-3.122,2.913,2.9,2.9,0,0,1-3.153-3.042V55.893a3.142,3.142,0,0,1,6.275-.1Z"/>
    <path class="cls-1" d="M109.009,61.415V55.893c0-.832-.176-1.84-1.729-1.84a1.9,1.9,0,0,0-2.049,1.808v5.554h-1.2V50h1.2V53.8a2.663,2.663,0,0,1,2.049-.928,2.7,2.7,0,0,1,2.929,3.025v5.522Z"/>
    <path class="cls-1" d="M118.833,57.59h-5.074v.944a1.715,1.715,0,0,0,1.937,1.841,1.77,1.77,0,0,0,1.905-1.712h1.216a2.98,2.98,0,0,1-3.121,2.913,2.9,2.9,0,0,1-3.153-3.042V55.893a2.917,2.917,0,0,1,3.153-3.025,2.879,2.879,0,0,1,3.137,3.025Zm-1.216-1.7a1.7,1.7,0,0,0-1.921-1.84,1.735,1.735,0,0,0-1.937,1.84v.512h3.858Z"/>
    <path class="cls-1" d="M123.84,54.212c-.64,0-1.488.481-1.488,1.857v5.346h-1.2v-8.4h1.2v.768a2.069,2.069,0,0,1,1.5-.768h.672v1.2Z"/>
    <path class="cls-1" d="M131.056,50V61.415h-1.233V50Z"/>
    <path class="cls-1" d="M138.593,61.415V55.893c0-.832-.176-1.84-1.729-1.84a1.9,1.9,0,0,0-2.049,1.808v5.554h-1.2v-8.4h1.2v.768a2.624,2.624,0,0,1,2.049-.912,2.706,2.706,0,0,1,2.929,3.025v5.522Z"/>
    <path class="cls-1" d="M144.928,61.543a2.818,2.818,0,0,1-3.1-2.88h1.2c0,1.1.752,1.68,1.905,1.68.945,0,1.937-.24,1.937-1.425,0-.544-.4-.848-.945-1.008-.624-.16-1.536-.368-2.129-.512a2.212,2.212,0,0,1-1.84-2.081c0-1.745,1.376-2.433,2.929-2.433a2.779,2.779,0,0,1,3.089,2.721h-1.217c-.063-.96-.688-1.537-1.9-1.537-.832,0-1.7.241-1.7,1.249a1.063,1.063,0,0,0,.929.944c.608.144,1.536.337,2.225.545a2.2,2.2,0,0,1,1.76,2.112C148.065,60.839,146.608,61.543,144.928,61.543Z"/>
    <path class="cls-1" d="M149.214,53.012h1.6V50h1.2v3.009h1.84v1.2h-1.84V59.3a.813.813,0,0,0,.88.928h.993v1.184h-1.057a1.906,1.906,0,0,1-2.017-2.176V54.212h-1.6Z"/>
    <path class="cls-1" d="M155.9,51.62V49.891h1.473V51.62Zm.144,9.8V53h1.2v8.419Z"/>
    <path class="cls-1" d="M158.991,53.012h1.6V50h1.2v3.009h1.841v1.2h-1.841V59.3a.813.813,0,0,0,.88.928h.993v1.184h-1.057a1.906,1.906,0,0,1-2.016-2.176V54.212h-1.6Z"/>
    <path class="cls-1" d="M170.626,61.415v-.656a2.531,2.531,0,0,1-1.905.8,2.855,2.855,0,0,1-3.106-3.026V53h1.217v5.538a1.665,1.665,0,0,0,1.889,1.825,1.727,1.727,0,0,0,1.905-1.745V53h1.216v8.419Z"/>
    <path class="cls-1" d="M173.455,53.012h1.6V50h1.2v3.009H178.1v1.2h-1.841V59.3a.813.813,0,0,0,.88.928h.993v1.184h-1.057a1.906,1.906,0,0,1-2.016-2.176V54.212h-1.6Z"/>
    <path class="cls-1" d="M186.274,57.59H181.2v.944a1.715,1.715,0,0,0,1.937,1.841,1.769,1.769,0,0,0,1.9-1.712h1.217a2.981,2.981,0,0,1-3.121,2.913,2.9,2.9,0,0,1-3.154-3.042V55.893a2.918,2.918,0,0,1,3.154-3.025,2.879,2.879,0,0,1,3.137,3.025Zm-1.217-1.7a1.7,1.7,0,0,0-1.92-1.84,1.735,1.735,0,0,0-1.937,1.84v.512h3.857Z"/>
    <path class="cls-1" d="M2.657,73.212v7.2h-1.2v-7.2H0v-1.2H1.457v-.624A2.094,2.094,0,0,1,3.714,69h.752v1.184h-.9A.89.89,0,0,0,2.657,71.2v.816H4.642v1.2Z"/>
    <path class="cls-1" d="M9.25,80.576A2.9,2.9,0,0,1,6.1,77.534V74.893A2.917,2.917,0,0,1,9.25,71.868a2.879,2.879,0,0,1,3.137,3.025v2.641A2.925,2.925,0,0,1,9.25,80.576Zm1.92-5.683a1.7,1.7,0,0,0-1.92-1.84,1.735,1.735,0,0,0-1.937,1.84v2.641A1.715,1.715,0,0,0,9.25,79.375a1.737,1.737,0,0,0,1.92-1.841Z"/>
    <path class="cls-1" d="M17.474,73.212c-.641,0-1.489.481-1.489,1.857v5.346h-1.2v-8.4h1.2v.768a2.07,2.07,0,0,1,1.5-.768h.672v1.2Z"/>
    <path class="cls-1" d="M26.913,80.415H23.456V69h3.377a2.75,2.75,0,0,1,2.978,2.961v.192A2.706,2.706,0,0,1,28.5,74.525a2.615,2.615,0,0,1,1.488,2.481v.384A2.888,2.888,0,0,1,26.913,80.415Zm1.665-8.435A1.567,1.567,0,0,0,26.8,70.219H24.689v3.714H26.9c.736,0,1.681-.224,1.681-1.809Zm.192,5.042a1.662,1.662,0,0,0-1.809-1.889H24.689V79.2h2.192a1.708,1.708,0,0,0,1.889-1.841Z"/>
    <path class="cls-1" d="M32.3,70.62V68.891h1.473V70.62Zm.145,9.8V72h1.2v8.419Z"/>
    <path class="cls-1" d="M39.329,80.576a2.9,2.9,0,0,1-3.153-3.042V74.893a2.917,2.917,0,0,1,3.153-3.025,2.879,2.879,0,0,1,3.137,3.025v2.641A2.925,2.925,0,0,1,39.329,80.576Zm1.92-5.683a1.7,1.7,0,0,0-1.92-1.84,1.735,1.735,0,0,0-1.937,1.84v2.641a1.715,1.715,0,0,0,1.937,1.841,1.737,1.737,0,0,0,1.92-1.841Z"/>
    <path class="cls-1" d="M54.387,80.415h-1.2v-6c0-.72-.32-1.36-1.217-1.36-1.216,0-1.744.752-1.744,2.016v5.346h-1.2V74.461c0-.7-.352-1.408-1.184-1.408-1.249,0-1.761.736-1.761,2.032v5.33H44.864V71.98H46.08v.672a2.413,2.413,0,0,1,1.857-.784,1.933,1.933,0,0,1,1.792,1.041,2.79,2.79,0,0,1,2.321-1.041A2.269,2.269,0,0,1,54.387,74.3Z"/>
    <path class="cls-1" d="M63.01,76.59H57.936v.944a1.715,1.715,0,0,0,1.937,1.841,1.77,1.77,0,0,0,1.905-1.712h1.216a2.98,2.98,0,0,1-3.121,2.913,2.9,2.9,0,0,1-3.153-3.042V74.893a2.917,2.917,0,0,1,3.153-3.025,2.879,2.879,0,0,1,3.137,3.025Zm-1.217-1.7a1.7,1.7,0,0,0-1.92-1.84,1.735,1.735,0,0,0-1.937,1.84v.512h3.857Z"/>
    <path class="cls-1" d="M65.168,74.893a2.841,2.841,0,0,1,3.089-3.025,2.359,2.359,0,0,1,1.889.832V69h1.216V80.415H70.146v-.656a2.485,2.485,0,0,1-1.889.817,2.886,2.886,0,0,1-3.089-3.042Zm1.216,2.641a1.7,1.7,0,0,0,1.873,1.841,1.676,1.676,0,0,0,1.889-1.841V74.893a1.706,1.706,0,0,0-1.889-1.84,1.664,1.664,0,0,0-1.873,1.84Z"/>
    <path class="cls-1" d="M73.919,70.62V68.891h1.473V70.62Zm.145,9.8V72h1.2v8.419Z"/>
    <path class="cls-1" d="M84.066,74.8H82.85a1.926,1.926,0,0,0-3.842.1v2.641a1.715,1.715,0,0,0,1.937,1.841,1.77,1.77,0,0,0,1.905-1.712h1.216a2.98,2.98,0,0,1-3.121,2.913,2.9,2.9,0,0,1-3.153-3.042V74.893a3.142,3.142,0,0,1,6.274-.1Z"/>
    <path class="cls-1" d="M92.018,80.415H90.8v-.8a2.8,2.8,0,0,1-2.225.945,2.62,2.62,0,0,1-2.8-2.738c0-1.568,1.152-2.385,2.689-2.385H90.8v-.8c0-1.232-.737-1.584-1.729-1.584A1.56,1.56,0,0,0,87.3,74.605H86.1a2.788,2.788,0,0,1,2.961-2.737c1.441,0,2.961.7,2.961,2.721ZM90.8,76.574H88.5c-.913,0-1.521.352-1.521,1.248,0,1.249.913,1.537,1.793,1.537A1.9,1.9,0,0,0,90.8,77.55Z"/>
    <path class="cls-1" d="M94.447,68.891h1.217V78.3a.806.806,0,0,0,.88.928h.384v1.184h-.464a1.914,1.914,0,0,1-2.017-2.176Z"/>
    <path class="cls-1" d="M107.409,80.415,105.168,75.6H103.3v4.817h-1.233V69h3.377a2.882,2.882,0,0,1,3.09,3.009v.544a2.967,2.967,0,0,1-2.065,2.929l2.337,4.93ZM107.3,72.06a1.7,1.7,0,0,0-1.888-1.841H103.3V74.4h2.144A1.7,1.7,0,0,0,107.3,72.54Z"/>
    <path class="cls-1" d="M117.041,76.59h-5.074v.944a1.715,1.715,0,0,0,1.937,1.841,1.77,1.77,0,0,0,1.905-1.712h1.216a2.98,2.98,0,0,1-3.121,2.913,2.9,2.9,0,0,1-3.153-3.042V74.893a2.917,2.917,0,0,1,3.153-3.025,2.879,2.879,0,0,1,3.137,3.025Zm-1.216-1.7a1.7,1.7,0,0,0-1.921-1.84,1.735,1.735,0,0,0-1.937,1.84v.512h3.858Z"/>
    <path class="cls-1" d="M122,80.543a2.818,2.818,0,0,1-3.105-2.88h1.2c0,1.1.753,1.68,1.905,1.68.945,0,1.937-.24,1.937-1.425,0-.544-.4-.848-.944-1.008-.625-.16-1.537-.368-2.129-.512a2.212,2.212,0,0,1-1.841-2.081c0-1.745,1.376-2.433,2.929-2.433a2.778,2.778,0,0,1,3.089,2.721h-1.216c-.064-.96-.688-1.537-1.905-1.537-.832,0-1.7.241-1.7,1.249a1.063,1.063,0,0,0,.928.944c.608.144,1.537.337,2.225.545a2.2,2.2,0,0,1,1.761,2.112C125.138,79.839,123.681,80.543,122,80.543Z"/>
    <path class="cls-1" d="M133.362,76.59h-5.074v.944a1.715,1.715,0,0,0,1.937,1.841,1.769,1.769,0,0,0,1.9-1.712h1.217a2.981,2.981,0,0,1-3.121,2.913,2.9,2.9,0,0,1-3.154-3.042V74.893a2.918,2.918,0,0,1,3.154-3.025,2.879,2.879,0,0,1,3.137,3.025Zm-1.217-1.7a1.7,1.7,0,0,0-1.92-1.84,1.735,1.735,0,0,0-1.937,1.84v.512h3.857Z"/>
    <path class="cls-1" d="M141.538,80.415h-1.217v-.8a2.8,2.8,0,0,1-2.225.945,2.621,2.621,0,0,1-2.8-2.738c0-1.568,1.153-2.385,2.689-2.385h2.337v-.8c0-1.232-.736-1.584-1.728-1.584a1.56,1.56,0,0,0-1.777,1.552h-1.2a2.788,2.788,0,0,1,2.962-2.737,2.648,2.648,0,0,1,2.961,2.721Zm-1.217-3.841h-2.3c-.913,0-1.521.352-1.521,1.248,0,1.249.912,1.537,1.793,1.537a1.9,1.9,0,0,0,2.032-1.809Z"/>
    <path class="cls-1" d="M146.72,73.212c-.64,0-1.489.481-1.489,1.857v5.346h-1.2v-8.4h1.2v.768a2.073,2.073,0,0,1,1.5-.768h.672v1.2Z"/>
    <path class="cls-1" d="M155.3,74.8h-1.216a1.926,1.926,0,0,0-3.842.1v2.641a1.715,1.715,0,0,0,1.937,1.841,1.77,1.77,0,0,0,1.905-1.712H155.3a2.98,2.98,0,0,1-3.121,2.913,2.9,2.9,0,0,1-3.153-3.042V74.893a3.142,3.142,0,0,1,6.274-.1Z"/>
    <path class="cls-1" d="M162.368,80.415V74.893c0-.832-.176-1.84-1.728-1.84a1.9,1.9,0,0,0-2.049,1.808v5.554h-1.2V69h1.2V72.8a2.66,2.66,0,0,1,2.049-.928,2.7,2.7,0,0,1,2.929,3.025v5.522Z"/>
  </g>
  <g>
    <polyline class="cls-1" points="30.403 0.001 43.011 0.001 50.473 8.999 58.008 0.075 71.029 0.075 71.029 37.237 58.008 37.237 58.008 17.484 50.473 26.557 43.011 17.633 43.011 37.237 30.429 37.237 30.429 10.975"/>
    <rect class="cls-1" x="75.199" y="0.001" width="12.948" height="37.236"/>
  </g>
  <polygon class="cls-1" points="26.881 10.974 13.563 10.974 13.563 15.216 24.83 15.216 24.83 25.165 13.563 25.165 13.563 37.236 0.761 37.236 0.836 0 26.861 0 26.881 10.974"/>
</svg>
