<?xml version="1.0" encoding="UTF-8" standalone="no"?>
<svg
   xmlns:dc="http://purl.org/dc/elements/1.1/"
   xmlns:cc="http://creativecommons.org/ns#"
   xmlns:rdf="http://www.w3.org/1999/02/22-rdf-syntax-ns#"
   xmlns:svg="http://www.w3.org/2000/svg"
   xmlns="http://www.w3.org/2000/svg"
   xmlns:xlink="http://www.w3.org/1999/xlink"
   xmlns:sodipodi="http://sodipodi.sourceforge.net/DTD/sodipodi-0.dtd"
   xmlns:inkscape="http://www.inkscape.org/namespaces/inkscape"
   width="171.1"
   height="79.7"
   viewBox="0 0 171.1 79.7"
   id="svg2"
   version="1.1"
   inkscape:version="0.91 r13725"
   sodipodi:docname="logo.svg"
   inkscape:export-filename="/Users/frcop/Cloud/PSB_ownCloud/Projects/Elixir/BE/Board_20151022/logo.png"
   inkscape:export-xdpi="90"
   inkscape:export-ydpi="90">
  <metadata
     id="metadata256">
    <rdf:RDF>
      <cc:Work
         rdf:about="">
        <dc:format>image/svg+xml</dc:format>
        <dc:type
           rdf:resource="http://purl.org/dc/dcmitype/StillImage" />
      </cc:Work>
    </rdf:RDF>
  </metadata>
  <defs
     id="defs254" />
  <sodipodi:namedview
     pagecolor="#ffffff"
     bordercolor="#666666"
     borderopacity="1"
     objecttolerance="10"
     gridtolerance="10"
     guidetolerance="10"
     inkscape:pageopacity="0"
     inkscape:pageshadow="2"
     inkscape:window-width="1406"
     inkscape:window-height="855"
     id="namedview252"
     showgrid="false"
     inkscape:zoom="5.5464639"
     inkscape:cx="85.550003"
     inkscape:cy="39.849998"
     inkscape:window-x="34"
     inkscape:window-y="0"
     inkscape:window-maximized="1"
     inkscape:current-layer="svg2" />
  <style
     type="text/css"
     id="style4">.st0{fill:#039FC5;} .st1{fill:#CFE3EE;} .st2{opacity:0.5;} .st3{clip-path:url(#SVGID_2_);} .st4{clip-path:url(#SVGID_4_);} .st5{clip-path:url(#SVGID_8_);} .st6{clip-path:url(#SVGID_10_);} .st7{clip-path:url(#SVGID_14_);} .st8{clip-path:url(#SVGID_16_);} .st9{fill:#96C6DD;} .st10{enable-background:new ;} .st11{clip-path:url(#SVGID_20_);} .st12{clip-path:url(#SVGID_22_);fill:#E2E3E4;} .st13{clip-path:url(#SVGID_22_);fill:#9B9C9E;} .st14{clip-path:url(#SVGID_22_);fill:#C5C6C8;} .st15{fill:#999B9C;} .st16{fill:#B0B2B3;} .st17{fill:#666769;} .st18{clip-path:url(#SVGID_24_);} .st19{clip-path:url(#SVGID_26_);fill:#E2E3E4;} .st20{clip-path:url(#SVGID_26_);fill:#9B9C9E;} .st21{clip-path:url(#SVGID_26_);fill:#C5C6C8;} .st22{clip-path:url(#SVGID_28_);} .st23{clip-path:url(#SVGID_30_);fill:#E2E3E4;} .st24{clip-path:url(#SVGID_30_);fill:#9B9C9E;} .st25{clip-path:url(#SVGID_30_);fill:#C5C6C8;} .st26{clip-path:url(#SVGID_32_);} .st27{clip-path:url(#SVGID_34_);fill:#E2E3E4;} .st28{clip-path:url(#SVGID_34_);fill:#9B9C9E;} .st29{clip-path:url(#SVGID_34_);fill:#C5C6C8;} .st30{fill:#A2A3A5;} .st31{fill:#9D9FA1;} .st32{font-family:'Myriad-Roman';} .st33{font-size:5.6345;} .st34{clip-path:url(#SVGID_36_);} .st35{clip-path:url(#SVGID_38_);fill:#E2E3E4;} .st36{clip-path:url(#SVGID_38_);fill:#9B9C9E;} .st37{clip-path:url(#SVGID_38_);fill:#C5C6C8;} .st38{fill:#838486;}</style>
  <path
     class="st0"
     d="M28.1 70h1.3l-2.8 7.5h-1.3L22.8 70h1.5l1.7 5.3c.1.2.1.4.1.6 0-.1 0-.4.1-.6l1.9-5.3zM30 69.7l1.3-.1V76c0 .4 0 .4.3.4h.4v.9c-.2.1-.7.1-1.1.1-.7 0-1-.3-1-1v-6.7zM35.7 76.9c-.4.5-1 .7-1.6.7-.8 0-1.4-.5-1.4-1.5 0-.7.4-1.2 3-1.4V74c0-.5-.2-.6-.6-.6-.6 0-1.2.2-1.7.6l-.5-1c.7-.5 1.5-.8 2.5-.8 1.2 0 1.5.6 1.5 1.7V76c0 .4 0 .4.7.5l-.2 1h-.5c-.7 0-1.1-.2-1.2-.6m-1.8-.9c0 .4.2.7.7.7.4 0 .8-.2 1.1-.5v-.8c-1.4 0-1.8.2-1.8.6M41.2 76.9c-.4.5-1 .7-1.6.7-.8 0-1.4-.5-1.4-1.5 0-.7.4-1.2 3-1.4V74c0-.5-.2-.6-.6-.6-.6 0-1.2.2-1.7.6l-.5-1c.7-.5 1.5-.8 2.5-.8 1.2 0 1.5.6 1.5 1.7V76c0 .4 0 .4.7.5l-.2 1h-.5c-.7 0-1.1-.2-1.2-.6m-1.7-.9c0 .4.2.7.7.7.4 0 .8-.2 1.1-.5v-.8c-1.5 0-1.8.2-1.8.6"
     id="path6" />
  <path
     class="st0"
     d="M50.1 73.9c0-.4-.1-.6-.5-.6-.3 0-.7.2-1.2.6v3.5h-1.3v-3.6c0-.4-.1-.6-.5-.6-.3 0-.8.2-1.2.7v3.5h-1.3v-5.1l1.1-.1c.1.2.1.5.1.8.6-.6 1.2-.8 1.8-.8.8 0 1.1.3 1.2.8.5-.5 1.1-.8 1.7-.8 1 0 1.3.5 1.3 1.4v3.9H50v-3.6zM54.3 77.5c-.7 0-1.3-.1-1.9-.4l.2-1c.6.3 1.3.4 1.8.4.6 0 .8-.2.8-.5s-.1-.4-.8-.7c-1.5-.4-1.8-.9-1.8-1.6 0-1 .8-1.6 2-1.6.6 0 1.2.1 1.8.4l-.3 1c-.4-.2-1-.3-1.4-.3-.5 0-.7.2-.7.5s.1.5 1 .7c1.3.4 1.6.8 1.6 1.5-.2.9-.9 1.6-2.3 1.6M61.6 77.5c-.9 0-1.6-.2-2.3-.5l.4-1.1c.6.3 1.4.5 2.1.5.9 0 1.3-.4 1.3-.9 0-.6-.2-.8-1.4-1.1-1.5-.4-2.1-.9-2.1-2.2 0-1.3.9-2.3 2.5-2.3.9 0 1.6.2 2.2.5l-.3 1.1c-.5-.2-1.3-.4-1.8-.4-.9 0-1.2.3-1.2.9 0 .5.2.8 1.2 1.1 1.9.5 2.3 1.1 2.3 2.2-.1 1.2-1.1 2.2-2.9 2.2"
     id="path8" />
  <path
     class="st0"
     d="M68.8 77.5c-.1-.2-.1-.5-.1-.7-.6.5-1.2.8-1.8.8-1 0-1.3-.5-1.3-1.5v-3.7l1.3-.1v3.6c0 .4.1.6.5.6.3 0 .7-.2 1.2-.6v-3.5l1.3-.1v5.1l-1.1.1zM73.6 77.5c-.3 0-.7 0-.9-.1v2.2l-1.3.1v-7.3l1.1-.1c.1.2.1.4.1.6.4-.4 1-.7 1.6-.7 1.1 0 1.9.7 1.9 2.5 0 1.5-.7 2.8-2.5 2.8m.1-4.2c-.4 0-.8.2-1 .5v2.7c.2.1.5.2.8.2.8 0 1.2-.6 1.2-1.8.1-1-.3-1.6-1-1.6"
     id="path10" />
  <path
     class="st0"
     d="M79.3 77.5c-1.5 0-2.4-.7-2.4-2.4 0-1.8.9-2.9 2.6-2.9 1.4 0 1.9.9 1.9 2.4v.6h-3.1c0 .9.4 1.4 1.2 1.4.5 0 1.2-.2 1.7-.5l.3.9c-.6.3-1.4.5-2.2.5m.9-3.1c0-.8-.3-1.2-.8-1.2-.6 0-1 .4-1.1 1.2h1.9zM85.5 73.4h-.4c-.5 0-.6.1-1.2 1v3h-1.3v-5.1l1-.1c.1.2.1.7.2 1.1.5-1 .7-1.1 1.2-1.1.2 0 .5 0 .6.1l-.1 1.1zM89.7 73.4c-.3-.1-.7-.2-1-.2-.9 0-1.3.5-1.3 1.7 0 1 .3 1.5 1.2 1.5.4 0 .8-.1 1.2-.3l.3.9c-.5.3-1.1.4-1.8.4-1.5 0-2.2-.7-2.2-2.5 0-1.9 1.1-2.9 2.5-2.9.5 0 1 .1 1.4.2l-.3 1.2zM93.1 77.5c-1.6 0-2.4-.8-2.4-2.6 0-1.6 1-2.8 2.6-2.8s2.4.8 2.4 2.6c0 1.7-.9 2.8-2.6 2.8m.2-4.3c-.7 0-1.2.6-1.2 1.7 0 1.3.4 1.7 1.1 1.7.8 0 1.1-.6 1.1-1.8.1-1.1-.2-1.6-1-1.6"
     id="path12" />
  <path
     class="st0"
     d="M102.9 73.9c0-.4-.1-.6-.5-.6-.3 0-.7.2-1.2.6v3.5h-1.3v-3.6c0-.4-.1-.6-.5-.6-.3 0-.8.2-1.2.7v3.5h-1.3v-5.1l1.1-.1c.1.2.1.5.1.8.6-.6 1.2-.8 1.8-.8.8 0 1.1.3 1.2.8.5-.5 1.1-.8 1.7-.8 1 0 1.3.5 1.3 1.4v3.9h-1.3v-3.6zM107.8 77.5c-.3 0-.7 0-.9-.1v2.2l-1.3.1v-7.3l1.1-.1c.1.2.1.4.1.6.4-.4 1-.7 1.6-.7 1.1 0 1.9.7 1.9 2.5 0 1.5-.7 2.8-2.5 2.8m.2-4.2c-.4 0-.8.2-1 .5v2.7c.2.1.5.2.8.2.8 0 1.2-.6 1.2-1.8 0-1-.4-1.6-1-1.6"
     id="path14" />
  <path
     class="st0"
     d="M114.7 77.5c-.1-.2-.1-.5-.1-.7-.6.5-1.2.8-1.8.8-1 0-1.3-.5-1.3-1.5v-3.7l1.3-.1v3.6c0 .4.1.6.5.6.3 0 .7-.2 1.2-.6v-3.5l1.3-.1v5.1l-1.1.1zM118.7 77.5c-.9 0-1.4-.4-1.4-1.3v-2.9h-.7l.1-.9h.6l.2-1.6 1.1-.1v1.7h1.5l-.1 1h-1.4v2.9c0 .3.1.4.4.4.3 0 .7-.1 1-.2l.2.9c-.3 0-.8.1-1.5.1"
     id="path16" />
  <path
     class="st0"
     d="M123.3 77.5c-1.5 0-2.4-.7-2.4-2.4 0-1.8.9-2.9 2.6-2.9 1.4 0 1.9.9 1.9 2.4v.6h-3.1c0 .9.4 1.4 1.2 1.4.5 0 1.2-.2 1.7-.5l.3.9c-.6.3-1.4.5-2.2.5m.9-3.1c0-.8-.3-1.2-.8-1.2-.6 0-1 .4-1.1 1.2h1.9zM129.5 73.4h-.4c-.5 0-.6.1-1.2 1v3h-1.3v-5.1l1-.1c.1.2.1.7.2 1.1.5-1 .7-1.1 1.2-1.1.2 0 .5 0 .6.1l-.1 1.1zM136.4 71.1c-.3-.1-.5-.1-.7-.1-1.2 0-2 .9-2 2.7 0 2.1.9 2.6 1.9 2.6.7 0 1.4-.2 2-.6l.4 1c-.7.5-1.5.7-2.6.7-2 0-3.1-1.1-3.1-3.7 0-2.4 1.2-4 3.4-4 1 0 1.5.1 2.1.4l-.1 2.3-1.2.1-.1-1.4zM141.1 77.5c-1.5 0-2.4-.7-2.4-2.4 0-1.8.9-2.9 2.6-2.9 1.4 0 1.9.9 1.9 2.4v.6h-3.1c0 .9.4 1.4 1.2 1.4.5 0 1.2-.2 1.7-.5l.3.9c-.6.3-1.4.5-2.2.5m.9-3.1c0-.8-.3-1.2-.8-1.2-.6 0-1 .4-1.1 1.2h1.9zM147.5 77.5v-3.6c0-.4-.1-.6-.5-.6-.3 0-.8.2-1.2.7v3.5h-1.3v-5.1l1.1-.1c.1.2.1.5.1.8.6-.6 1.2-.8 1.8-.8 1 0 1.3.5 1.3 1.4v3.8h-1.3zM151.7 77.5c-.9 0-1.4-.4-1.4-1.3v-2.9h-.6l.1-.9h.6l.2-1.6 1.1-.1v1.7h1.5l-.1 1h-1.4v2.9c0 .3.1.4.4.4s.7-.1 1-.2l.2.9c-.4 0-.9.1-1.6.1"
     id="path18" />
  <path
     class="st0"
     d="M157.1 73.4h-.4c-.5 0-.6.1-1.2 1v3h-1.3v-5.1l1-.1c.1.2.1.7.2 1.1.5-1 .7-1.1 1.2-1.1.2 0 .5 0 .6.1l-.1 1.1zM161.2 77.5c-.1-.2-.1-.5-.1-.7-.6.5-1.2.8-1.8.8-1 0-1.3-.5-1.3-1.5v-3.7l1.3-.1v3.6c0 .4.1.6.5.6.3 0 .7-.2 1.2-.6v-3.5l1.3-.1v5.1l-1.1.1zM169.8 73.9c0-.4-.1-.6-.5-.6-.3 0-.7.2-1.2.6v3.5h-1.3v-3.6c0-.4-.1-.6-.5-.6-.3 0-.8.2-1.2.7v3.5h-1.3v-5.1l1.1-.1c.1.2.1.5.1.8.6-.6 1.2-.8 1.8-.8.8 0 1.1.3 1.2.8.5-.5 1.1-.8 1.7-.8 1 0 1.3.5 1.3 1.4v3.9h-1.3v-3.6z"
     id="path20" />
  <path
     class="st1"
     d="M96.3 42.8c0 5.2-4.2 9.5-9.5 9.5-5.2 0-9.5-4.2-9.5-9.5 0-5.2 4.2-9.5 9.5-9.5 5.2 0 9.5 4.2 9.5 9.5"
     id="path22" />
  <g
     class="st2"
     id="g24">
    <defs
       id="defs26">
      <path
         id="SVGID_1_"
         d="M57.8 16.2h49.6V71H57.8z" />
    </defs>
    <clipPath
       id="SVGID_2_">
      <use
         xlink:href="#SVGID_1_"
         overflow="visible"
         id="use30" />
    </clipPath>
    <g
       class="st3"
       id="g32"
       clip-path="url(#SVGID_2_)">
      <defs
         id="defs34">
        <path
           id="SVGID_3_"
           d="M57.8 16.2h49.6V71H57.8z" />
      </defs>
      <clipPath
         id="SVGID_4_">
        <use
           xlink:href="#SVGID_3_"
           overflow="visible"
           id="use38" />
      </clipPath>
      <g
         class="st4"
         id="g40"
         clip-path="url(#SVGID_4_)">
        <defs
           id="defs42">
          <path
             id="SVGID_5_"
             d="M57.8 16.2h49.6V71H57.8z" />
        </defs>
        <clipPath
           id="SVGID_6_">
          <use
             xlink:href="#SVGID_5_"
             overflow="visible"
             id="use46" />
        </clipPath>
      </g>
    </g>
  </g>
  <path
     class="st0"
     d="M100.5 53.8v6.7c-4.4 2.4-9.5 3.6-15.3 3.6-4.7 0-8.7-.9-12-2.8-3.3-1.9-5.9-4.5-7.8-7.8-1.9-3.3-2.9-6.9-2.9-10.8 0-6.1 2.2-11.3 6.6-15.5 4.4-4.2 9.8-6.3 16.2-6.3 4.4 0 9.3 1.2 14.8 3.5v6.5c-4.9-2.8-9.8-4.2-14.5-4.2-4.8 0-8.8 1.5-12 4.6-3.2 3-4.8 6.9-4.8 11.4 0 4.6 1.6 8.4 4.7 11.4s7.2 4.5 12 4.5c5.1 0 10.1-1.6 15-4.8"
     id="path50" />
  <g
     class="st2"
     id="g52">
    <defs
       id="defs54">
      <path
         id="SVGID_7_"
         d="M33.5 0h37.8v71H33.5z" />
    </defs>
    <clipPath
       id="SVGID_8_">
      <use
         xlink:href="#SVGID_7_"
         overflow="visible"
         id="use58" />
    </clipPath>
    <g
       class="st5"
       id="g60"
       clip-path="url(#SVGID_8_)">
      <defs
         id="defs62">
        <path
           id="SVGID_9_"
           d="M33.5 0h37.8v71H33.5z" />
      </defs>
      <clipPath
         id="SVGID_10_">
        <use
           xlink:href="#SVGID_9_"
           overflow="visible"
           id="use66" />
      </clipPath>
      <g
         class="st6"
         id="g68"
         clip-path="url(#SVGID_10_)">
        <defs
           id="defs70">
          <path
             id="SVGID_11_"
             d="M33.5 0h37.8v71H33.5z" />
        </defs>
        <clipPath
           id="SVGID_12_">
          <use
             xlink:href="#SVGID_11_"
             overflow="visible"
             id="use74" />
        </clipPath>
      </g>
    </g>
  </g>
  <path
     class="st0"
     d="M52 39.1l-5.1-3.8c-3.2-2.4-5.4-4.8-6.8-7.1-1.3-2.3-2-5-2-8.1 0-4.6 1.3-8.3 3.8-11.1 2.5-2.9 5.8-4.3 9.9-4.3 3.9 0 7.4 1.4 10.7 4.1v9.4c-3.3-4-6.9-6-10.8-6-2.2 0-3.9.6-5.3 1.9-1.4 1.3-2.1 2.9-2.1 4.8 0 1.7.5 3.4 1.5 4.9 1 1.5 2.7 3.1 4.9 4.8l5.1 3.7c5.7 4.2 8.5 9.6 8.5 16.1 0 4.6-1.2 8.4-3.7 11.3-2.5 2.9-5.7 4.4-9.7 4.4-4.6 0-8.8-1.8-12.5-5.3V48.3c3.6 5.7 7.7 8.5 12.5 8.5 2.1 0 3.8-.7 5.2-2.2 1.4-1.5 2.1-3.3 2.1-5.5-.1-3.5-2.1-6.8-6.2-10"
     id="path78" />
  <path
     class="st0"
     d="M36.1 21h6L24.2 63.3h-1.4L4.7 21h6.1l12.7 29.6z"
     id="path108" />
  <path
     class="st9"
     d="M83.1 29.9l-.6.3-.1-.4.8-.4h.4v3.5h-.5zM88.2 29.9l-.6.3-.1-.4.7-.4h.5v3.5h-.5zM91.2 53.6l-.6.3-.1-.4.8-.4h.4v3.5h-.5zM80.4 36.4c-.7 0-1.2-.6-1.2-1.8 0-1.2.5-1.8 1.2-1.8s1.2.7 1.2 1.8-.4 1.8-1.2 1.8zm0-.4c.5 0 .7-.6.7-1.5s-.2-1.4-.7-1.4c-.4 0-.7.6-.7 1.4 0 1 .3 1.5.7 1.5zM85.8 35.9c-.7 0-1.2-.6-1.2-1.8 0-1.2.5-1.8 1.2-1.8s1.2.7 1.2 1.8c0 1.2-.4 1.8-1.2 1.8zm0-.3c.5 0 .7-.6.7-1.5s-.2-1.4-.7-1.4c-.4 0-.7.6-.7 1.4 0 .9.3 1.5.7 1.5zM81.6 45.3c-.7 0-1.2-.6-1.2-1.8 0-1.2.5-1.8 1.2-1.8s1.2.7 1.2 1.8-.4 1.8-1.2 1.8zm0-.4c.5 0 .7-.6.7-1.5s-.2-1.4-.7-1.4c-.4 0-.7.6-.7 1.4 0 1 .3 1.5.7 1.5zM72.6 36.9l-.7.3v-.3l.7-.4h.4V40h-.4zM79.3 39.5l-.6.3-.1-.3.7-.4h.4v3.5h-.4zM83.4 36.7l-.6.3-.1-.4.7-.4h.4v3.5h-.4zM88.7 36.3l-.6.4-.1-.4.7-.4h.4v3.5h-.4zM72.3 43.7l-.6.3-.1-.3.8-.5h.4v3.6h-.5zM75.4 41.2c-.7 0-1.2-.6-1.2-1.8 0-1.2.5-1.8 1.2-1.8s1.2.7 1.2 1.8-.5 1.8-1.2 1.8zm0-.4c.5 0 .7-.6.7-1.5s-.2-1.4-.7-1.4c-.4 0-.7.6-.7 1.4-.1.9.2 1.5.7 1.5zM76.6 46c-.7 0-1.2-.6-1.2-1.8 0-1.2.5-1.8 1.2-1.8s1.2.7 1.2 1.8-.5 1.8-1.2 1.8zm0-.4c.5 0 .7-.6.7-1.5s-.2-1.4-.7-1.4c-.4 0-.7.6-.7 1.4 0 .9.2 1.5.7 1.5zM78.9 55.4c-.7 0-1.2-.6-1.2-1.8 0-1.2.5-1.8 1.2-1.8s1.2.7 1.2 1.8c.1 1.1-.4 1.8-1.2 1.8zm.1-.4c.5 0 .7-.6.7-1.5s-.2-1.4-.7-1.4c-.4 0-.7.6-.7 1.4-.1 1 .2 1.5.7 1.5zM85.2 52.7c-.7 0-1.2-.6-1.2-1.8 0-1.2.5-1.8 1.2-1.8s1.2.7 1.2 1.8c.1 1.1-.4 1.8-1.2 1.8zm.1-.4c.5 0 .7-.6.7-1.5s-.2-1.4-.7-1.4c-.4 0-.7.6-.7 1.4-.1 1 .2 1.5.7 1.5zM88 57.5c-.7 0-1.2-.6-1.2-1.8 0-1.2.5-1.8 1.2-1.8s1.2.7 1.2 1.8-.4 1.8-1.2 1.8zm0-.4c.5 0 .7-.6.7-1.5s-.2-1.4-.7-1.4c-.4 0-.7.6-.7 1.4 0 .9.3 1.5.7 1.5zM94.2 54.4c-.7 0-1.2-.6-1.2-1.8 0-1.2.5-1.8 1.2-1.8s1.2.7 1.2 1.8c.1 1.2-.4 1.8-1.2 1.8zm.1-.4c.5 0 .7-.6.7-1.5s-.2-1.4-.7-1.4c-.4 0-.7.6-.7 1.4-.1 1 .2 1.5.7 1.5zM111.5 55.9c-.7 0-1.2-.6-1.2-1.8 0-1.2.5-1.8 1.2-1.8s1.2.7 1.2 1.8c0 1.2-.4 1.8-1.2 1.8zm0-.3c.5 0 .7-.6.7-1.5s-.2-1.4-.7-1.4c-.4 0-.7.6-.7 1.4 0 .9.3 1.5.7 1.5zM102.8 55.3c-.7 0-1.2-.6-1.2-1.8 0-1.2.5-1.8 1.2-1.8s1.2.7 1.2 1.8-.4 1.8-1.2 1.8zm0-.4c.5 0 .7-.6.7-1.5s-.2-1.4-.7-1.4c-.4 0-.7.6-.7 1.4 0 .9.3 1.5.7 1.5zM78.5 50.5c-.7 0-1.2-.6-1.2-1.8 0-1.2.5-1.8 1.2-1.8s1.2.7 1.2 1.8-.4 1.8-1.2 1.8zm0-.4c.5 0 .7-.6.7-1.5s-.2-1.4-.7-1.4c-.4 0-.7.6-.7 1.4 0 1 .3 1.5.7 1.5zM91.5 33.9c-.7 0-1.2-.6-1.2-1.8 0-1.2.5-1.8 1.2-1.8s1.2.7 1.2 1.8c.1 1.1-.4 1.8-1.2 1.8zm.1-.4c.5 0 .7-.6.7-1.5s-.2-1.4-.7-1.4c-.4 0-.7.6-.7 1.4-.1 1 .2 1.5.7 1.5zM88.6 45.9c-.7 0-1.2-.6-1.2-1.8 0-1.2.5-1.8 1.2-1.8s1.2.7 1.2 1.8c.1 1.1-.4 1.8-1.2 1.8zm.1-.4c.5 0 .7-.6.7-1.5s-.2-1.4-.7-1.4c-.4 0-.7.6-.7 1.4-.1 1 .2 1.5.7 1.5zM109.3 51.8c-.7 0-1.2-.6-1.2-1.8 0-1.2.5-1.8 1.2-1.8s1.2.7 1.2 1.8-.5 1.8-1.2 1.8zm0-.4c.5 0 .7-.6.7-1.5s-.2-1.4-.7-1.4c-.4 0-.7.6-.7 1.4 0 1 .2 1.5.7 1.5zM108.5 43.8c-.7 0-1.2-.6-1.2-1.8 0-1.2.5-1.8 1.2-1.8s1.2.7 1.2 1.8-.5 1.8-1.2 1.8zm0-.4c.5 0 .7-.6.7-1.5s-.2-1.4-.7-1.4c-.4 0-.7.6-.7 1.4 0 1 .2 1.5.7 1.5zM91.5 49.9c-.7 0-1.2-.6-1.2-1.8 0-1.2.5-1.8 1.2-1.8s1.2.7 1.2 1.8c.1 1.2-.4 1.8-1.2 1.8zm.1-.3c.5 0 .7-.6.7-1.5s-.2-1.4-.7-1.4c-.4 0-.7.6-.7 1.4-.1.9.2 1.5.7 1.5zM113.6 32.7c-.7 0-1.2-.6-1.2-1.8 0-1.2.5-1.8 1.2-1.8s1.2.7 1.2 1.8c.1 1.2-.4 1.8-1.2 1.8zm.1-.3c.5 0 .7-.6.7-1.5s-.2-1.4-.7-1.4c-.4 0-.7.6-.7 1.4-.1.9.2 1.5.7 1.5zM83.5 46l-.6.3-.1-.4.8-.4h.4V49h-.5zM83.5 53.9l-.6.3-.1-.3.8-.5h.4V57h-.5zM87.8 47.6l-.6.3-.1-.3.7-.4h.4v3.5h-.4zM97.6 49.3l-.6.3-.1-.3.8-.5h.4v3.6h-.5zM116 51.8l-.6.4-.1-.4.7-.4h.5v3.5h-.5zM101.4 47.4l-.6.4-.1-.4.8-.4h.4v3.5h-.5zM106.9 54.6l-.6.3-.1-.3.8-.4h.4v3.5h-.5zM105.1 47.8l-.6.3-.1-.3.8-.4h.4v3.5h-.5zM85.9 38.9l-.6.4-.1-.4.7-.4h.5V42h-.5zM108.3 31.1l-.6.3-.1-.4.8-.4h.4v3.5h-.5zM103.6 30.4l-.6.3-.1-.3.8-.4h.4v3.5h-.5zM105 35.9l-.7.3v-.3l.7-.5h.4V39h-.4zM75.5 50.1l-.6.4-.1-.4.8-.4h.4v3.5h-.5zM76.8 32.7l-.6.4-.1-.4.7-.4h.5v3.5h-.5z"
     id="path110" />
  <g
     class="st10"
     id="g112">
    <defs
       id="defs114">
      <path
         id="SVGID_19_"
         d="M125.4 49.3h18.7v17.1h-18.7z" />
    </defs>
    <clipPath
       id="SVGID_20_">
      <use
         xlink:href="#SVGID_19_"
         overflow="visible"
         id="use118" />
    </clipPath>
    <g
       class="st11"
       id="g120"
       clip-path="url(#SVGID_20_)">
      <defs
         id="defs122">
        <path
           id="SVGID_21_"
           d="M125.4 49.3h18.7v17.1h-18.7z" />
      </defs>
      <clipPath
         id="SVGID_22_">
        <use
           xlink:href="#SVGID_21_"
           overflow="visible"
           id="use126" />
      </clipPath>
      <path
         class="st12"
         d="M126.9 52.1l5-2.8 12.2 2.9-5 2.7z"
         id="path128"
         clip-path="url(#SVGID_22_)" />
      <path
         class="st13"
         d="M139.1 54.9l5-2.7-1.5 11.5-5 2.7z"
         id="path130"
         clip-path="url(#SVGID_22_)" />
      <path
         class="st14"
         d="M126.9 52.1l12.2 2.8-1.5 11.5-12.2-2.8z"
         id="path132"
         clip-path="url(#SVGID_22_)" />
    </g>
  </g>
  <path
     class="st15"
     d="M132.7 56.1h-.1l-1.4.6-.1-1 1.9-.7.9.2-1.4 8.9-1-.2z"
     id="path134" />
  <path
     class="st16"
     d="M132.1 51.1c.4-.7 2-.9 4.4-.4 2.4.6 3.4 1.4 2.9 2.2-.5.8-2.1.9-4.3.4-2.4-.5-3.4-1.3-3-2.2zm.8.2c-.3.5.7 1.1 2.5 1.5 1.8.4 3 .5 3.4-.1.3-.5-.7-1-2.5-1.5-1.9-.4-3.2-.3-3.4.1z"
     id="path136" />
  <path
     class="st17"
     d="M140.2 63.2c-.7-.1-.9-1.7-.5-4.3.4-2.7 1.1-4 1.8-3.9.7.2.9 1.7.5 4.2-.4 2.8-1.1 4.2-1.8 4zm.1-.8c.5.1.9-1.1 1.2-3.1.3-1.9.3-3.3-.2-3.4-.4-.1-.9 1.1-1.2 3.1-.2 2-.2 3.3.2 3.4z"
     id="path138" />
  <g
     class="st10"
     id="g140">
    <defs
       id="defs142">
      <path
         id="SVGID_23_"
         d="M152.4 26.8h15.8V42h-15.8z" />
    </defs>
    <clipPath
       id="SVGID_24_">
      <use
         xlink:href="#SVGID_23_"
         overflow="visible"
         id="use146" />
    </clipPath>
    <g
       class="st18"
       id="g148"
       clip-path="url(#SVGID_24_)">
      <defs
         id="defs150">
        <path
           id="SVGID_25_"
           d="M152.4 26.8h15.8V42h-15.8z" />
      </defs>
      <clipPath
         id="SVGID_26_">
        <use
           xlink:href="#SVGID_25_"
           overflow="visible"
           id="use154" />
      </clipPath>
      <path
         class="st19"
         d="M153.6 29.2l4.3-2.4 10.4 2.6-4.3 2.4z"
         id="path156"
         clip-path="url(#SVGID_26_)" />
      <path
         class="st20"
         d="M164 31.8l4.3-2.4-1.3 10.2-4.3 2.4z"
         id="path158"
         clip-path="url(#SVGID_26_)" />
      <path
         class="st21"
         d="M153.6 29.2l10.4 2.6-1.3 10.2-10.3-2.5z"
         id="path160"
         clip-path="url(#SVGID_26_)" />
    </g>
  </g>
  <path
     class="st15"
     d="M158.6 32.8l-1.3.6-.1-.9 1.6-.6.8.1-1.1 7.9-.9-.1z"
     id="path162" />
  <path
     class="st16"
     d="M158.1 28.4c.4-.7 1.7-.8 3.7-.3s2.9 1.3 2.5 2c-.4.7-1.7.8-3.7.3s-2.9-1.2-2.5-2zm.7.2c-.3.5.6.9 2.1 1.3s2.6.4 2.8-.1c.2-.4-.6-.9-2.1-1.3-1.5-.3-2.6-.3-2.8.1z"
     id="path164" />
  <path
     class="st17"
     d="M165.8 32.9l-.6.5.1-.7.7-.7.3.1-1 7-.4-.1z"
     id="path166" />
  <g
     class="st10"
     id="g168">
    <defs
       id="defs170">
      <path
         id="SVGID_27_"
         d="M132.2 28.8h17.1V44h-17.1z" />
    </defs>
    <clipPath
       id="SVGID_28_">
      <use
         xlink:href="#SVGID_27_"
         overflow="visible"
         id="use174" />
    </clipPath>
    <g
       class="st22"
       id="g176"
       clip-path="url(#SVGID_28_)">
      <defs
         id="defs178">
        <path
           id="SVGID_29_"
           d="M132.2 28.8h17.1V44h-17.1z" />
      </defs>
      <clipPath
         id="SVGID_30_">
        <use
           xlink:href="#SVGID_29_"
           overflow="visible"
           id="use182" />
      </clipPath>
      <path
         class="st23"
         d="M133.6 31.3l4.5-2.5 11.1 2.5-4.4 2.5z"
         id="path184"
         clip-path="url(#SVGID_30_)" />
      <path
         class="st24"
         d="M144.8 33.8l4.4-2.5-1.4 10.2-4.5 2.5z"
         id="path186"
         clip-path="url(#SVGID_30_)" />
      <path
         class="st25"
         d="M133.6 31.3l11.2 2.5-1.5 10.2-11.1-2.5z"
         id="path188"
         clip-path="url(#SVGID_30_)" />
    </g>
  </g>
  <path
     class="st17"
     d="M146.6 34.9l-.6.5v-.7l.8-.7.4.1-1.2 7-.4-.1z"
     id="path190" />
  <g
     class="st10"
     id="g192">
    <defs
       id="defs194">
      <path
         id="SVGID_31_"
         d="M110.3 32.1H129v17.1h-18.7z" />
    </defs>
    <clipPath
       id="SVGID_32_">
      <use
         xlink:href="#SVGID_31_"
         overflow="visible"
         id="use198" />
    </clipPath>
    <g
       class="st26"
       id="g200"
       clip-path="url(#SVGID_32_)">
      <defs
         id="defs202">
        <path
           id="SVGID_33_"
           d="M110.3 32.1H129v17.1h-18.7z" />
      </defs>
      <clipPath
         id="SVGID_34_">
        <use
           xlink:href="#SVGID_33_"
           overflow="visible"
           id="use206" />
      </clipPath>
      <path
         class="st27"
         d="M111.8 34.8l5-2.7 12.2 2.8-4.9 2.8z"
         id="path208"
         clip-path="url(#SVGID_34_)" />
      <path
         class="st28"
         d="M124.1 37.7l4.9-2.8-1.5 11.6-5 2.7z"
         id="path210"
         clip-path="url(#SVGID_34_)" />
      <path
         class="st29"
         d="M111.8 34.8l12.3 2.9-1.6 11.5-12.2-2.8z"
         id="path212"
         clip-path="url(#SVGID_34_)" />
    </g>
  </g>
  <path
     class="st15"
     d="M117.6 38.9l-1.5.6-.1-1 1.9-.7.9.2-1.3 8.9-1.1-.2z"
     id="path214" />
  <path
     class="st16"
     d="M117.1 33.9c.4-.7 2-.9 4.4-.4 2.4.6 3.4 1.4 2.9 2.2-.5.8-2.1.9-4.3.4-2.5-.5-3.5-1.3-3-2.2zm.7.2c-.3.5.7 1.1 2.5 1.5 1.8.4 3 .5 3.4-.1.3-.5-.7-1-2.5-1.5-1.8-.4-3.1-.4-3.4.1z"
     id="path216" />
  <path
     class="st17"
     d="M126.2 38.9h-.1l-.7.6.1-.8.9-.8.4.1-1.3 7.9-.4-.1z"
     id="path218" />
  <path
     class="st30"
     d="M137.8 41.5c-1-.4-1.5-2-1-4.4.5-2.5 1.5-3.6 2.6-3.2 1.1.4 1.5 2 1 4.3-.5 2.5-1.4 3.7-2.6 3.3zm.2-.8c.7.3 1.3-.8 1.7-2.7.4-1.8.3-3.1-.5-3.4-.7-.2-1.3.8-1.7 2.6-.4 2-.2 3.3.5 3.5z"
     id="path220" />
  <text
     transform="matrix(-.234 .972 -1.944 -.468 137.805 28.981)"
     class="st31 st32 st33"
     id="text222">1</text>
  <g
     class="st10"
     id="g224">
    <defs
       id="defs226">
      <path
         id="SVGID_35_"
         d="M91 32.2h15.1v14.1H91z" />
    </defs>
    <clipPath
       id="SVGID_36_">
      <use
         xlink:href="#SVGID_35_"
         overflow="visible"
         id="use230" />
    </clipPath>
    <g
       class="st34"
       id="g232"
       clip-path="url(#SVGID_36_)">
      <defs
         id="defs234">
        <path
           id="SVGID_37_"
           d="M91 32.2h15.1v14.1H91z" />
      </defs>
      <clipPath
         id="SVGID_38_">
        <use
           xlink:href="#SVGID_37_"
           overflow="visible"
           id="use238" />
      </clipPath>
      <path
         class="st35"
         d="M92.2 34.5l4.1-2.3 9.9 2.4-4.1 2.2z"
         id="path240"
         clip-path="url(#SVGID_38_)" />
      <path
         class="st36"
         d="M102.1 36.8l4.1-2.2-1.2 9.5-4.1 2.3z"
         id="path242"
         clip-path="url(#SVGID_38_)" />
      <path
         class="st37"
         d="M92.2 34.5l9.9 2.3-1.2 9.6L91 44z"
         id="path244"
         clip-path="url(#SVGID_38_)" />
    </g>
  </g>
  <path
     class="st16"
     d="M96.5 33.7c.3-.6 1.6-.8 3.6-.3 1.9.5 2.7 1.2 2.4 1.8-.4.7-1.7.8-3.5.3-2-.4-2.9-1.1-2.5-1.8zm.6.2c-.2.4.6.9 2 1.2 1.4.3 2.5.4 2.7-.1.2-.4-.5-.9-2-1.2-1.5-.3-2.5-.3-2.7.1z"
     id="path246" />
  <path
     class="st17"
     d="M104 38l-.6.5v-.7l.7-.6.3.1-1 6.5-.3-.1z"
     id="path248" />
  <path
     class="st38"
     d="M96.3 44.3c-1.3-.1-2.1-1.5-1.9-3.7.2-2.3 1.3-3.4 2.7-3.3 1.4.1 2.1 1.5 1.9 3.6-.2 2.4-1.2 3.6-2.7 3.4zm.2-.7c.9.1 1.5-.9 1.7-2.7.2-1.7-.1-2.8-1.1-2.9-.8-.1-1.5.9-1.7 2.6-.2 1.8.2 2.9 1.1 3z"
     id="path250" />
</svg>
