<?xml version="1.0" encoding="UTF-8" standalone="no"?>
<svg
   xmlns:dc="http://purl.org/dc/elements/1.1/"
   xmlns:cc="http://creativecommons.org/ns#"
   xmlns:rdf="http://www.w3.org/1999/02/22-rdf-syntax-ns#"
   xmlns:svg="http://www.w3.org/2000/svg"
   xmlns="http://www.w3.org/2000/svg"
   xmlns:xlink="http://www.w3.org/1999/xlink"
   xmlns:sodipodi="http://sodipodi.sourceforge.net/DTD/sodipodi-0.dtd"
   xmlns:inkscape="http://www.inkscape.org/namespaces/inkscape"
   width="210mm"
   height="297mm"
   viewBox="0 0 210 297"
   version="1.1"
   id="svg8"
   inkscape:export-filename="/home/saskia/microgalaxy.png"
   inkscape:export-xdpi="95.800003"
   inkscape:export-ydpi="95.800003"
   inkscape:version="1.0.2 (e86c870879, 2021-01-15)"
   sodipodi:docname="microgalaxy-logo.svg">
  <defs
     id="defs2">
    <rect
       x="5.2916667"
       y="23.8125"
       width="111.125"
       height="108.47917"
       id="rect2087" />
    <linearGradient
       inkscape:collect="always"
       id="linearGradient1868">
      <stop
         style="stop-color:#aa8800;stop-opacity:1;"
         offset="0"
         id="stop1864" />
      <stop
         style="stop-color:#aa8800;stop-opacity:0;"
         offset="1"
         id="stop1866" />
    </linearGradient>
    <linearGradient
       inkscape:collect="always"
       id="linearGradient1824">
      <stop
         style="stop-color:#806600;stop-opacity:1;"
         offset="0"
         id="stop1820" />
      <stop
         style="stop-color:#806600;stop-opacity:0;"
         offset="1"
         id="stop1822" />
    </linearGradient>
    <linearGradient
       inkscape:collect="always"
       id="linearGradient1767">
      <stop
         style="stop-color:#d3aa00;stop-opacity:1;"
         offset="0"
         id="stop1763" />
      <stop
         style="stop-color:#d3aa00;stop-opacity:0;"
         offset="1"
         id="stop1765" />
    </linearGradient>
    <linearGradient
       inkscape:collect="always"
       id="linearGradient1598">
      <stop
         style="stop-color:#d1be06;stop-opacity:1;"
         offset="0"
         id="stop1594" />
      <stop
         style="stop-color:#d1be06;stop-opacity:0;"
         offset="1"
         id="stop1596" />
    </linearGradient>
    <linearGradient
       inkscape:collect="always"
       xlink:href="#linearGradient1598"
       id="linearGradient1600"
       x1="63.255852"
       y1="97.895836"
       x2="93.220676"
       y2="97.647128"
       gradientUnits="userSpaceOnUse"
       gradientTransform="matrix(1.0998345,0,0,1.1022859,3.9831989,-11.847297)" />
    <linearGradient
       inkscape:collect="always"
       xlink:href="#linearGradient1767"
       id="linearGradient1769"
       x1="81.915889"
       y1="94.304298"
       x2="95.365055"
       y2="94.304298"
       gradientUnits="userSpaceOnUse"
       gradientTransform="translate(1.0583333,-1.0583333)" />
    <linearGradient
       inkscape:collect="always"
       xlink:href="#linearGradient1824"
       id="linearGradient1826"
       x1="76.914831"
       y1="100.89812"
       x2="80.955744"
       y2="100.89812"
       gradientUnits="userSpaceOnUse"
       gradientTransform="translate(-1.5875,-1.0583333)" />
    <linearGradient
       inkscape:collect="always"
       xlink:href="#linearGradient1868"
       id="linearGradient1870"
       x1="91.85168"
       y1="94.631516"
       x2="95.739766"
       y2="94.631516"
       gradientUnits="userSpaceOnUse"
       gradientTransform="translate(-1.5875,-1.0583333)" />
  </defs>
  <sodipodi:namedview
     id="base"
     pagecolor="#ffffff"
     bordercolor="#666666"
     borderopacity="1.0"
     inkscape:pageopacity="0.0"
     inkscape:pageshadow="2"
     inkscape:zoom="1.4"
     inkscape:cx="380.05296"
     inkscape:cy="259.32069"
     inkscape:document-units="mm"
     inkscape:current-layer="layer1"
     inkscape:document-rotation="0"
     showgrid="true"
     inkscape:window-width="948"
     inkscape:window-height="1000"
     inkscape:window-x="964"
     inkscape:window-y="35"
     inkscape:window-maximized="0">
    <inkscape:grid
       type="xygrid"
       id="grid1330" />
  </sodipodi:namedview>
  <metadata
     id="metadata5">
    <rdf:RDF>
      <cc:Work
         rdf:about="">
        <dc:format>image/svg+xml</dc:format>
        <dc:type
           rdf:resource="http://purl.org/dc/dcmitype/StillImage" />
        <dc:title />
      </cc:Work>
    </rdf:RDF>
  </metadata>
  <g
     inkscape:label="Layer 1"
     inkscape:groupmode="layer"
     id="layer1">
    <path
       id="rect847"
       style="opacity:0.99271582;fill:#58585a;stroke-width:0.920001;fill-opacity:1"
       d="M 93.289062 117.24414 A 8.2617917 8.001716 0 0 0 85.09375 125.24414 A 8.2617917 8.001716 0 0 0 86.992188 130.3457 A 6.3747625 18.865167 0 0 1 89.017578 144.13867 A 6.3747625 18.865167 0 0 1 88.990234 145.85742 L 88.638672 145.85742 L 82.980469 145.85742 C 82.281656 145.85742 81.668644 146.20841 81.302734 146.74219 A 30.092176 29.329095 0 0 0 74.580078 149.25586 A 22.404964 7.4028559 55.830387 0 1 70 140 A 8.001716 8.2617917 55.830387 0 0 68.666016 135.15625 A 8.001716 8.2617917 55.830387 0 0 57.337891 133.17773 A 8.001716 8.2617917 55.830387 0 0 57.283203 133.21484 A 8.001716 8.2617917 55.830387 0 0 54.996094 144.4375 A 8.001716 8.2617917 55.830387 0 0 59.431641 147.5918 A 18.865167 6.3747625 55.830387 0 1 66.789062 155.02148 A 30.092176 29.329095 0 0 0 59.527344 167.76367 A 7.4028559 22.404964 86.199987 0 1 48.792969 167.04297 A 8.2617917 8.001716 86.199987 0 0 43.939453 165.74609 A 8.2617917 8.001716 86.199987 0 0 36.505859 174.51953 A 8.2617917 8.001716 86.199987 0 0 36.509766 174.58594 A 8.2617917 8.001716 86.199987 0 0 45.035156 182.23242 A 8.2617917 8.001716 86.199987 0 0 50 180 A 6.3747625 18.865167 86.199987 0 1 58.652344 177.625 A 30.092176 29.329095 0 0 0 65.166016 193.53711 A 7.4028559 22.404964 50.388493 0 1 57.439453 198.19922 A 8.2617917 8.001716 50.388493 0 0 52.746094 199.98633 A 8.2617917 8.001716 50.388493 0 0 51.849609 211.45117 A 8.2617917 8.001716 50.388493 0 0 51.892578 211.50195 A 8.2617917 8.001716 50.388493 0 0 63.279297 212.71484 A 8.2617917 8.001716 50.388493 0 0 66 208 A 6.3747625 18.865167 50.388493 0 1 72.640625 200.02539 A 30.092176 29.329095 0 0 0 81.330078 203.63672 C 81.698575 204.1505 82.297197 204.48633 82.980469 204.48633 L 87.298828 204.48633 A 30.092176 29.329095 0 0 0 88.115234 204.51172 A 7.4028559 22.404964 1.165318 0 1 86.988281 210.08203 A 8.2617917 8.001716 1.165318 0 0 85.273438 214.80273 A 8.2617917 8.001716 1.165318 0 0 93.371094 222.96875 A 8.2617917 8.001716 1.165318 0 0 93.4375 222.9707 A 8.2617917 8.001716 1.165318 0 0 101.79492 215.13867 A 8.2617917 8.001716 1.165318 0 0 100 210 A 6.3747625 18.865167 1.165318 0 1 98.738281 204.48633 L 121.84961 204.48633 A 7.4028559 22.404964 1.165318 0 1 121.83398 205.81055 A 7.4028559 22.404964 1.165318 0 1 120.07227 219.25 A 8.2617917 8.001716 1.165318 0 0 118.35938 223.9707 A 8.2617917 8.001716 1.165318 0 0 126.45703 232.13672 A 8.2617917 8.001716 1.165318 0 0 126.52344 232.13867 A 8.2617917 8.001716 1.165318 0 0 134.87891 224.30664 A 8.2617917 8.001716 1.165318 0 0 133.08594 219.16797 A 6.3747625 18.865167 1.165318 0 1 131.33984 205.33594 A 6.3747625 18.865167 1.165318 0 1 131.36328 204.48633 L 158.11914 204.48633 A 7.4028559 22.404964 1.165318 0 1 156.98828 210.08203 A 8.2617917 8.001716 1.165318 0 0 155.27344 214.80273 A 8.2617917 8.001716 1.165318 0 0 163.37109 222.96875 A 8.2617917 8.001716 1.165318 0 0 163.4375 222.9707 A 8.2617917 8.001716 1.165318 0 0 171.79492 215.13867 A 8.2617917 8.001716 1.165318 0 0 170 210 A 6.3747625 18.865167 1.165318 0 1 168.73828 204.48633 L 195.84961 204.48633 A 7.4028559 22.404964 1.165318 0 1 195.83398 205.81055 A 7.4028559 22.404964 1.165318 0 1 194.07227 219.25 A 8.2617917 8.001716 1.165318 0 0 192.35938 223.9707 A 8.2617917 8.001716 1.165318 0 0 200.45703 232.13672 A 8.2617917 8.001716 1.165318 0 0 200.52344 232.13867 A 8.2617917 8.001716 1.165318 0 0 208.87891 224.30664 A 8.2617917 8.001716 1.165318 0 0 207.08594 219.16797 A 6.3747625 18.865167 1.165318 0 1 205.33984 205.33594 A 6.3747625 18.865167 1.165318 0 1 205.36328 204.48633 L 227.38086 204.48633 A 7.4028559 22.404964 1.165318 0 1 227.0293 205.88672 A 8.2617917 8.001716 1.165318 0 0 225.31641 210.60742 A 8.2617917 8.001716 1.165318 0 0 233.41406 218.77539 A 8.2617917 8.001716 1.165318 0 0 233.48047 218.77539 A 8.2617917 8.001716 1.165318 0 0 241.83594 210.94336 A 8.2617917 8.001716 1.165318 0 0 240.04102 205.80469 A 6.3747625 18.865167 1.165318 0 1 239.63672 204.48633 L 267.82031 204.48633 A 7.4028559 22.404964 1.165318 0 1 267.83398 207.81055 A 7.4028559 22.404964 1.165318 0 1 266.07227 221.25 A 8.2617917 8.001716 1.165318 0 0 264.35938 225.9707 A 8.2617917 8.001716 1.165318 0 0 272.45703 234.13672 A 8.2617917 8.001716 1.165318 0 0 272.52344 234.13867 A 8.2617917 8.001716 1.165318 0 0 280.87891 226.30664 A 8.2617917 8.001716 1.165318 0 0 279.08594 221.16797 A 6.3747625 18.865167 1.165318 0 1 277.33984 207.33594 A 6.3747625 18.865167 1.165318 0 1 277.47266 204.48633 L 301.11914 204.48633 A 7.4028559 22.404964 1.165318 0 1 300 210 A 8.2617917 8.001716 1.165318 0 0 298.28711 214.72266 A 8.2617917 8.001716 1.165318 0 0 306.38281 222.88867 A 8.2617917 8.001716 1.165318 0 0 306.44922 222.89062 A 8.2617917 8.001716 1.165318 0 0 314.80664 215.05859 A 8.2617917 8.001716 1.165318 0 0 313.01172 209.91797 A 6.3747625 18.865167 1.165318 0 1 311.76172 204.48633 L 326.42383 204.48633 C 326.9216 204.48633 327.36965 204.30237 327.72266 204.00781 A 31.656975 29.364711 0 0 0 328.19727 203.98047 A 22.404964 7.4028559 77.427516 0 1 329.17773 207.8418 A 22.404964 7.4028559 77.427516 0 1 330.6582 221.31445 A 8.001716 8.2617917 77.427516 0 0 330.11523 226.30859 A 8.001716 8.2617917 77.427516 0 0 339.91992 232.31836 A 8.001716 8.2617917 77.427516 0 0 339.98438 232.30469 A 8.001716 8.2617917 77.427516 0 0 346.24219 222.71289 A 8.001716 8.2617917 77.427516 0 0 343.2793 218.14648 A 18.865167 6.3747625 77.427516 0 1 338.30078 205.125 A 18.865167 6.3747625 77.427516 0 1 337.69531 201.99414 A 31.656975 29.364711 0 0 0 350.05859 193.84375 A 22.404964 7.4028559 24.592209 0 1 360 200 A 8.001716 8.2617917 24.592209 0 0 363.65234 203.44922 A 8.001716 8.2617917 24.592209 0 0 374.36328 199.26562 A 8.001716 8.2617917 24.592209 0 0 374.39062 199.20703 L 374.39258 199.20703 A 8.001716 8.2617917 24.592209 0 0 370.52734 188.42578 A 8.001716 8.2617917 24.592209 0 0 365.09961 188.02734 A 18.865167 6.3747625 24.592209 0 1 355.42773 185.66797 A 31.656975 29.364711 0 0 0 357.72656 174.68359 A 31.656975 29.364711 0 0 0 356.94922 168.2207 A 7.4028559 22.404964 57.465799 0 1 357.41016 167.92188 A 7.4028559 22.404964 57.465799 0 1 369.56836 161.93164 A 8.2617917 8.001716 57.465799 0 0 374.44727 160.73633 A 8.2617917 8.001716 57.465799 0 0 376.75 149.46875 A 8.2617917 8.001716 57.465799 0 0 376.71484 149.41406 L 376.71289 149.41406 A 8.2617917 8.001716 57.465799 0 0 365.5625 146.80664 A 8.2617917 8.001716 57.465799 0 0 362.28125 151.15039 A 6.3747625 18.865167 57.465799 0 1 353.0918 159.38672 A 31.656975 29.364711 0 0 0 335.42969 146.63281 A 7.4028559 22.404964 25.565187 0 1 340 140 A 8.2617917 8.001716 25.565187 0 0 343.51172 136.4082 A 8.2617917 8.001716 25.565187 0 0 339.50977 125.625 A 8.2617917 8.001716 25.565187 0 0 339.45117 125.59766 A 8.2617917 8.001716 25.565187 0 0 328.60547 129.27734 A 8.2617917 8.001716 25.565187 0 0 328.11719 134.69922 A 6.3747625 18.865167 25.565187 0 1 325.18945 145.33203 A 31.656975 29.364711 0 0 0 320.04688 145.85742 L 305.22461 145.85742 A 7.4028559 22.404964 0 0 1 306.71094 132.75586 A 8.2617917 8.001716 0 0 0 308.32812 128 A 8.2617917 8.001716 0 0 0 300.06641 120 A 8.2617917 8.001716 0 0 0 300 120 A 8.2617917 8.001716 0 0 0 291.80469 128 A 8.2617917 8.001716 0 0 0 293.70312 133.10156 A 6.3747625 18.865167 0 0 1 295.71875 145.85742 L 268.95312 145.85742 A 7.4028559 22.404964 0 0 1 270 140 A 8.2617917 8.001716 0 0 0 271.61719 135.24414 A 8.2617917 8.001716 0 0 0 263.35547 127.24414 A 8.2617917 8.001716 0 0 0 263.28906 127.24414 A 8.2617917 8.001716 0 0 0 255.09375 135.24414 A 8.2617917 8.001716 0 0 0 256.99219 140.3457 A 6.3747625 18.865167 0 0 1 258.37109 145.85742 L 238.55469 145.85742 A 7.4028559 22.404964 0 0 1 238.51172 143.47266 A 7.4028559 22.404964 0 0 1 240 130 A 8.2617917 8.001716 0 0 0 241.61719 125.24414 A 8.2617917 8.001716 0 0 0 233.35547 117.24414 A 8.2617917 8.001716 0 0 0 233.28906 117.24414 A 8.2617917 8.001716 0 0 0 225.09375 125.24414 A 8.2617917 8.001716 0 0 0 226.99219 130.3457 A 6.3747625 18.865167 0 0 1 229.01758 144.13867 A 6.3747625 18.865167 0 0 1 228.99023 145.85742 L 208.95312 145.85742 A 7.4028559 22.404964 0 0 1 210 140 A 8.2617917 8.001716 0 0 0 211.61719 135.24414 A 8.2617917 8.001716 0 0 0 203.35547 127.24414 A 8.2617917 8.001716 0 0 0 203.28906 127.24414 A 8.2617917 8.001716 0 0 0 195.09375 135.24414 A 8.2617917 8.001716 0 0 0 196.99219 140.3457 A 6.3747625 18.865167 0 0 1 198.37109 145.85742 L 168.55469 145.85742 A 7.4028559 22.404964 0 0 1 168.51172 143.47266 A 7.4028559 22.404964 0 0 1 170 130 A 8.2617917 8.001716 0 0 0 171.61719 125.24414 A 8.2617917 8.001716 0 0 0 163.35547 117.24414 A 8.2617917 8.001716 0 0 0 163.28906 117.24414 A 8.2617917 8.001716 0 0 0 155.09375 125.24414 A 8.2617917 8.001716 0 0 0 156.99219 130.3457 A 6.3747625 18.865167 0 0 1 159.01758 144.13867 A 6.3747625 18.865167 0 0 1 158.99023 145.85742 L 131.91992 145.85742 A 7.4028559 22.404964 0 0 1 133.00781 139.6543 A 8.2617917 8.001716 0 0 0 134.625 134.89844 A 8.2617917 8.001716 0 0 0 126.36328 126.89844 A 8.2617917 8.001716 0 0 0 126.29688 126.89844 A 8.2617917 8.001716 0 0 0 118.10156 134.89844 A 8.2617917 8.001716 0 0 0 120 140 A 6.3747625 18.865167 0 0 1 121.43359 145.85742 L 98.554688 145.85742 A 7.4028559 22.404964 0 0 1 98.511719 143.47266 A 7.4028559 22.404964 0 0 1 100 130 A 8.2617917 8.001716 0 0 0 101.61719 125.24414 A 8.2617917 8.001716 0 0 0 93.355469 117.24414 A 8.2617917 8.001716 0 0 0 93.289062 117.24414 z "
       transform="scale(0.26458333)"
       inkscape:export-xdpi="95.800003"
       inkscape:export-ydpi="95.800003" />
    <path
       id="rect847-2"
       style="opacity:1;fill:#58585a;fill-opacity:1;stroke-width:0.204875"
       d="m 59.266667,63.464772 c 0,0 -0.6417,-0.07225 -0.95808,0.03523 H 20.769275 19.851502 c -0.113364,0 -0.212976,0.107302 -0.272335,0.270472 -2.170104,1.002162 -3.691365,4.585885 -3.691247,8.695684 1.18e-4,4.112731 1.523711,7.697921 3.695898,8.696879 0.05978,0.157061 0.15684,0.259724 0.267684,0.259724 h 0.700215 c 0.07247,0.006 0.145012,0.0089 0.217558,0.009 0.07306,2.7e-5 0.146118,-0.003 0.219108,-0.009 h 38.354764 c 0.08075,0 0.153575,-0.05623 0.210841,-0.146282 0.507828,-0.04669 1.008872,-0.224967 1.486731,-0.528999 0.389898,-0.0654 0.783376,-0.176538 1.166852,-0.329583 1.353349,-0.540501 2.45074,-1.547955 2.875277,-2.639632 0.504355,0.241093 0.608285,0.284453 1.252639,0.567212 1.402503,0.613124 2.95753,0.895571 4.53047,0.963069 0.412041,0.01767 0.825127,0.01177 1.237652,0.01731 2.131066,-0.07371 4.242446,-0.345079 6.36292,-0.524824 0.309716,-0.0024 0.704853,-0.08859 1.015958,0.0185 0.01461,0.0046 0.01548,0.02361 0.02739,0.03224 0.03037,0.0222 0.208016,0.115528 0.218591,0.121205 0.48596,0.270431 1.00317,0.699305 1.60972,0.734393 0.756311,0.04379 1.509265,-0.12054 2.263944,-0.18091 3.164118,-1.27891 1.955453,-4.584754 -0.711584,-4.863113 -0.07301,-0.03716 -0.08621,-0.04387 -0.330729,-0.169568 -0.559363,-0.237463 -0.794274,-0.360385 -1.410766,-0.521237 -1.06785,-0.278601 -2.186593,-0.314576 -3.292306,-0.214946 -1.90051,0.16155 -3.793429,0.390228 -5.699394,0.499747 -0.720604,0.0024 -1.528162,0.0082 -2.235005,-0.141505 -0.318664,-0.06771 -0.478438,-0.145861 -0.791167,-0.265098 -1.578716,-0.685661 -3.062859,-1.52434 -4.719609,-2.081375 -0.0019,-0.05158 -0.0039,-0.10313 -0.0062,-0.15464 0.332748,-0.09999 0.665398,-0.200743 0.999937,-0.294354 0.707544,-0.157823 1.49986,-0.337831 2.218471,-0.343314 0.324001,-0.0024 0.493601,0.03991 0.820105,0.08957 1.681525,0.336763 3.292731,0.849914 5.033801,1.034119 0.367043,0.0299 0.731237,0.07281 1.101225,0.08957 1.649814,0.07459 3.339568,-0.148306 4.964554,-0.654983 0.855253,-0.31287 1.709304,-0.639442 2.531629,-1.026358 3.851198,-1.907677 1.338691,-6.291941 -2.51251,-4.384264 -0.58148,0.255659 -1.176187,0.487736 -1.775084,0.702748 -0.791179,0.191367 -1.593575,0.271809 -2.380216,0.216139 -0.2056,-0.01458 -0.407966,-0.04259 -0.611849,-0.06388 -0.977778,-0.124193 -1.903632,-0.378916 -2.839622,-0.605426 -0.766056,-0.185367 -0.72581,-0.170051 -1.491898,-0.326597 -1.476954,-0.299583 -3.050791,-0.241584 -4.606954,0.03165 -0.228917,0.0402 -0.456861,0.08792 -0.684713,0.13673 -0.531577,-0.96527 -1.597686,-1.794786 -2.853054,-2.219895 -0.524489,-0.1776 0.651631,0.08003 0.122465,0.08003 -0.529167,-0.305699 -2.652141,-0.605702 -3.143893,-0.605702 -0.0057,-1.5e-5 -0.03317,0.42957 -0.03111,-0.0057 z"
       sodipodi:nodetypes="cccscscscscscccccscccccccccscccccccccccccccscscscscsc"
       inkscape:export-xdpi="95.800003"
       inkscape:export-ydpi="95.800003" />
    <ellipse
       style="opacity:0.877698;fill:#d1be06;fill-opacity:0.878431;stroke-width:0.243417"
       id="path1242"
       cx="55.195236"
       cy="72.068596"
       rx="3.7852178"
       ry="2.3646584"
       inkscape:export-xdpi="95.800003"
       inkscape:export-ydpi="95.800003" />
    <ellipse
       style="opacity:0.877698;fill:#d1be06;fill-opacity:0.878431;stroke-width:0.189271"
       id="path1242-5"
       cx="-41.465591"
       cy="66.710449"
       rx="2.7432802"
       ry="1.9726961"
       transform="rotate(-59.532327)"
       inkscape:export-xdpi="95.800003"
       inkscape:export-ydpi="95.800003" />
    <path
       id="rect847-2-5"
       style="opacity:0.9066569;fill:url(#linearGradient1600);fill-opacity:1;stroke:none;stroke-width:0.230978;stroke-linecap:butt;stroke-miterlimit:4;stroke-dasharray:none;stroke-opacity:1;paint-order:stroke fill markers"
       d="M 99.631813,87.155285 A 6.856027,8.564114 0 0 0 98.350142,87.3125 h -50.11663 -1.225409 c -0.151345,0 -0.284107,0.102369 -0.363354,0.25804 a 6.5171347,8.5537267 0 0 0 -4.92829,8.29597 6.5171347,8.5537267 0 0 0 4.934213,8.29711 c 0.0798,0.14984 0.20945,0.24778 0.357431,0.24778 h 0.935235 a 6.5171347,8.5537267 0 0 0 0.290174,0.009 6.5171347,8.5537267 0 0 0 0.292288,-0.009 h 51.205413 c 0.10781,0 0.20484,-0.0537 0.281287,-0.13955 a 6.856027,8.564114 0 0 0 6.49806,-8.552296 6.856027,8.564114 0 0 0 -6.855907,-8.564269 6.856027,8.564114 0 0 0 -0.0228,0 z"
       inkscape:export-xdpi="95.800003"
       inkscape:export-ydpi="95.800003" />
    <path
       sodipodi:type="star"
       style="opacity:0.877698;fill:#d1be06;fill-opacity:1;stroke-width:0.037868;stroke-miterlimit:4;stroke-dasharray:none"
       id="path1571"
       sodipodi:sides="8"
       sodipodi:cx="43.114014"
       sodipodi:cy="76.213837"
       sodipodi:r1="2.8338668"
       sodipodi:r2="1.4169335"
       sodipodi:arg1="0.78539816"
       sodipodi:arg2="1.1780972"
       inkscape:flatsided="false"
       inkscape:rounded="0"
       inkscape:randomized="0"
       d="m 45.11786,78.217683 -1.461609,-0.69477 -0.542237,1.524791 -0.542237,-1.524791 -1.46161,0.69477 0.694771,-1.461609 -1.524791,-0.542237 1.524791,-0.542237 -0.694771,-1.46161 1.46161,0.694771 0.542237,-1.524791 0.542237,1.524791 1.461609,-0.694771 -0.69477,1.46161 1.524791,0.542237 -1.524791,0.542237 z"
       inkscape:transform-center-x="0.13699098"
       inkscape:transform-center-y="-0.13703482"
       inkscape:export-xdpi="95.800003"
       inkscape:export-ydpi="95.800003" />
    <path
       style="opacity:0.877698;fill:#d1be06;fill-opacity:0.878431;stroke:#d1be06;stroke-width:0.141672;stroke-linecap:butt;stroke-miterlimit:4;stroke-dasharray:none;stroke-opacity:0.878431;paint-order:stroke fill markers"
       id="path1684"
       d="m 20.585022,72.008789 c 0.308776,-0.264707 0.617087,-0.541586 1.003569,-0.722571 0.0802,-0.03756 0.166917,-0.06356 0.250374,-0.09533 0.492808,-0.124735 0.712117,0.0042 1.090603,0.265175 0.306305,0.219557 0.556685,0.491744 0.659787,0.827787 0.06971,0.338157 -0.02635,0.675938 -0.09417,1.008334 -0.105048,0.452547 -0.219789,0.9017 -0.250351,1.363335 -0.0054,0.594901 0.223972,1.044391 0.567666,1.544481 0.277655,0.342352 0.542367,0.715136 0.926847,0.977881 0.07511,0.05134 0.157997,0.0935 0.236994,0.140258 0.555892,0.268887 1.134939,0.263433 1.749424,0.226576 0.465501,-0.03378 0.931666,-0.06785 1.383981,-0.173133 0.122787,-0.02914 0.235994,-0.07739 0.347719,-0.128866 0.57298,-0.272287 0.129118,-0.975279 -0.443861,-0.702992 v 0 c -0.04686,0.02433 -0.09513,0.0454 -0.147937,0.05879 -0.392216,0.09613 -0.801635,0.111203 -1.205175,0.146658 -0.397501,0.02511 -0.803988,0.05493 -1.175957,-0.09643 -0.384416,-0.205634 -0.627731,-0.544889 -0.88003,-0.861506 -0.235248,-0.336565 -0.439253,-0.685913 -0.436994,-1.090251 0.0218,-0.428779 0.148589,-0.844207 0.237455,-1.26514 0.09329,-0.457551 0.201919,-0.919515 0.06843,-1.380902 -0.02987,-0.08011 -0.05343,-0.162202 -0.08963,-0.240319 -0.182704,-0.394216 -0.521625,-0.720017 -0.890865,-0.989869 -0.09123,-0.05957 -0.17822,-0.124365 -0.273684,-0.178712 -0.580895,-0.33071 -1.113346,-0.374995 -1.766254,-0.179392 -0.122221,0.05028 -0.248529,0.09367 -0.366663,0.150824 -0.422288,0.204324 -0.774843,0.498202 -1.112118,0.793948 -0.490156,0.374718 0.120677,0.976093 0.610834,0.601376 z"
       inkscape:export-xdpi="95.800003"
       inkscape:export-ydpi="95.800003" />
    <ellipse
       style="opacity:0.877698;fill:#d3aa00;fill-opacity:0.760784;stroke:#d1be06;stroke-width:0.22;stroke-linecap:butt;stroke-miterlimit:4;stroke-dasharray:none;stroke-opacity:0.878431;paint-order:stroke fill markers"
       id="path1721"
       cx="57.15501"
       cy="94.568871"
       rx="6.614583"
       ry="3.3072915"
       inkscape:export-xdpi="95.800003"
       inkscape:export-ydpi="95.800003" />
    <ellipse
       style="opacity:0.877698;fill:#d3aa00;fill-opacity:0.760784;stroke:#d1be06;stroke-width:0.22;stroke-linecap:butt;stroke-miterlimit:4;stroke-dasharray:none;stroke-opacity:0.878431;paint-order:stroke fill markers"
       id="path1721-9"
       cx="74.352943"
       cy="99.595963"
       rx="6.614583"
       ry="3.3072915"
       inkscape:export-xdpi="95.800003"
       inkscape:export-ydpi="95.800003" />
    <ellipse
       style="opacity:0.877698;fill:url(#linearGradient1769);fill-opacity:1;stroke:none;stroke-width:0.22;stroke-linecap:butt;stroke-miterlimit:4;stroke-dasharray:none;stroke-opacity:0.878431;paint-order:stroke fill markers"
       id="path1721-9-1"
       cx="89.698807"
       cy="93.245964"
       rx="6.614583"
       ry="3.3072915"
       inkscape:export-xdpi="95.800003"
       inkscape:export-ydpi="95.800003" />
    <ellipse
       style="opacity:0.877698;fill:#aa8800;fill-opacity:1;stroke:none;stroke-width:0.152828;stroke-linecap:butt;stroke-miterlimit:4;stroke-dasharray:none;stroke-opacity:0.878431;paint-order:stroke fill markers"
       id="path1771"
       cx="59.481644"
       cy="94.712791"
       rx="1.9440428"
       ry="1.3032916"
       inkscape:export-xdpi="95.800003"
       inkscape:export-ydpi="95.800003" />
    <ellipse
       style="opacity:0.877698;fill:url(#linearGradient1826);fill-opacity:1;stroke:none;stroke-width:0.152828;stroke-linecap:butt;stroke-miterlimit:4;stroke-dasharray:none;stroke-opacity:0.878431;paint-order:stroke fill markers"
       id="path1771-6"
       cx="77.347786"
       cy="99.839783"
       rx="1.9440428"
       ry="1.3032916"
       inkscape:export-xdpi="95.800003"
       inkscape:export-ydpi="95.800003" />
    <ellipse
       style="opacity:0.877698;fill:url(#linearGradient1870);fill-opacity:1;stroke:none;stroke-width:0.152828;stroke-linecap:butt;stroke-miterlimit:4;stroke-dasharray:none;stroke-opacity:0.878431;paint-order:stroke fill markers"
       id="path1771-9"
       cx="92.208221"
       cy="93.573181"
       rx="1.9440428"
       ry="1.3032916"
       inkscape:export-xdpi="95.800003"
       inkscape:export-ydpi="95.800003" />
    <text
       xml:space="preserve"
       style="font-style:normal;font-weight:normal;font-size:14.1111px;line-height:0.85;font-family:sans-serif;fill:#58585a;fill-opacity:1;stroke:none;stroke-width:0.248375"
       x="16.221508"
       y="119.26303"
       id="text1874"
       transform="scale(0.96121831,1.0403464)"
       inkscape:export-xdpi="95.800003"
       inkscape:export-ydpi="95.800003"><tspan
         sodipodi:role="line"
         id="tspan1872"
         x="16.221508"
         y="119.26303"
         style="font-weight:bold;font-size:14.1111px;fill:#58585a;fill-opacity:1;stroke-width:0.248375">microGalaxy</tspan></text>
    <text
       xml:space="preserve"
       id="text2085"
       style="fill:black;fill-opacity:1;line-height:1.25;stroke:none;font-family:sans-serif;font-style:normal;font-weight:normal;font-size:10.58333333px;white-space:pre;shape-inside:url(#rect2087);"
       inkscape:export-xdpi="95.800003"
       inkscape:export-ydpi="95.800003" />
  </g>
</svg>
