<?xml version="1.0" encoding="UTF-8"?>
<!-- Generator: Adobe Illustrator 22.0.1, SVG Export Plug-In . SVG Version: 6.00 Build 0)  -->
<svg version="1.1" id="Layer_1" xmlns="http://www.w3.org/2000/svg" xmlns:xlink="http://www.w3.org/1999/xlink" x="0px" y="0px" viewBox="0 0 284 73" style="enable-background:new 0 0 284 73;" xml:space="preserve">
<style type="text/css">
	.st0{filter:url(#Adobe_OpacityMaskFilter);}
	.st1{fill:#FFFFFF;}
	.st2{mask:url(#mask-2_1_);fill:#FEFEFE;}
	.st3{fill:#00448D;}
	.st4{fill:#93BEE5;}
</style>
<title>Group 27</title>
<desc>Created with Sketch.</desc>
<g id="Symbols">
	<g id="DT---MVP-Nav" transform="translate(-63.000000, -9.000000)">
		<g id="Group-29">
			<g id="Group-27" transform="translate(63.000000, 9.000000)">
				<g id="Group-3">
					<g id="Clip-2">
					</g>
					<defs>
						<filter id="Adobe_OpacityMaskFilter" filterUnits="userSpaceOnUse" x="0.5" y="0.3" width="65.9" height="72.7">
							<feColorMatrix type="matrix" values="1 0 0 0 0  0 1 0 0 0  0 0 1 0 0  0 0 0 1 0"/>
						</filter>
					</defs>
					<mask maskUnits="userSpaceOnUse" x="0.5" y="0.3" width="65.9" height="72.7" id="mask-2_1_">
						<g class="st0">
							<polygon id="path-1_1_" class="st1" points="0.5,0.3 66.4,0.3 66.4,73 0.5,73        "/>
						</g>
					</mask>
					<path id="Fill-1" class="st2" d="M33.4,73c-14.6-8.7-33-21.3-33-43.5V6c6.7-2.5,17.1-5.7,33-5.7c16,0,27,3.5,33,5.7v23.5       C66.4,51.9,47.3,64.9,33.4,73"/>
				</g>
				<path id="Fill-4" class="st3" d="M21.3,62.2c3.9,3,8.1,5.7,12.1,8.2c0-3.7-0.1-5.8,2.4-8.4c1-1,2-2.1,3-3.1      c0.7-0.7,1.3-1.3,1.6-1.3c0.2,0,0.3,0.1,0.3,0.4c0,0.3,0.1,1.5,0.9,3c0.9,1.8,2.3,2,2.7,2.1c10.6-8,19.5-18.5,19.5-33.3V8      c-2.6-0.9-13.4-5-30.5-5S5.6,7.1,3,8v21.7c0,6.5,1.7,12.2,4.5,17.2c0.3-3,2.3-4.4,2.3-7.4c0-2.1-0.6-3.4-0.6-5.1      c0-3.1,4.2-9.6,6.4-12.2c0.1-0.1,0.2-0.3,0.4-0.3c0.2,0,0.3,0.1,0.4,0.3c0.2,0.3,0.3,0.5,0.6,0.5c0.2,0,0.3-0.1,0.3-0.3      c0-0.5-0.6-1.5-0.6-5c0-2.5,0.6-3,2.1-4.5c0.3-0.3,1.1-1.1,2-1.1c0.9,0,1.4,0.5,1.9,1.1c1,1,2.3,2.7,2.5,3      c0.1,0.1,0.1,0.1,0.2,0.1c0.4,0,0.8-0.1,2.7-0.1c3.5,0,8.7,0.5,11.4,1.4c1.4,0.5,1.7,0.8,2,0.8c0.2,0,0.2-0.1,0.2-0.2      c0-0.2-0.4-0.5-0.4-0.7c0-0.2,0.1-0.3,0.3-0.3c2-1.1,3.7-1.9,5.3-1.9c0.9,0,1.4,0.8,1.8,1.6c0.3,0.6,0.6,1.4,0.6,2.3      c0,2.1-0.8,3.4-1.5,4.3c0.3,0.3,0.8,0.8,1,1.1c0.5,0.6,1.1,1.3,1.1,2.1c0,0.3-0.2,0.9-0.3,1.3c0,0.2-0.2,0.6-0.5,0.6      c-0.3,0-0.4-0.3-0.4-0.6c0-0.1,0-0.2,0-0.2c0-0.6-0.2-1.4-0.7-2c-0.7-0.7-1.3-1.2-2-1.2h-0.3c-1.2,0-1.8,0.5-2.2,0.9      c-0.4,0.4-0.7,0.9-0.7,1.5c0,0.4,0.3,0.8,0.6,1.5c0.2,0.4,0.7,1.4,1,1.9c0.2,0.4,0.6,0.6,0.9,0.6c0.9,0,1.6-0.1,1.6-0.4      c0-0.1,0-0.1-0.2-0.1c0,0-0.2,0-0.3,0c-1.1,0-1.7-1.4-2.3-2.8c0.4-0.4,0.9-0.9,1.8-0.9c1.1,0,1.9,0.8,1.9,1.7      c0,0.5-0.2,0.9-0.2,1.1c0,0.1-0.1,0.1-0.1,0.2c0,0.2,0.2,0.2,0.5,0.3c0.1,0,0.3,0.1,0.4,0.1c0.3,0.1,0.7,0.4,0.8,0.8      c0.1,0.3,0.3,0.9,0.4,1c0.2,0.6,0.5,1.4,0.5,2.3c0,1-0.1,1.3-0.3,2.3c-0.3,1.3-0.5,1.8-0.6,2.5c0.1,0.2,0.1,0.3,0.2,0.4      c0.2,0.4,0.4,1.2,0.4,2v0.7c0,1.3-0.5,2.3-1.1,3c-0.4,0.6-1.1,1.4-1.4,1.9c-0.2,0.3-0.5,0.5-0.9,0.5c-0.2,0-0.4-0.1-0.6-0.1      c-0.2-0.1-0.7-0.2-0.9-0.2c-0.8-0.2-1-0.7-1.3-1.4c0-0.1-0.2-0.4-0.2-0.5c-0.2-0.5-0.3-0.8-0.6-0.8c-0.2,0-0.4,0.1-0.6,0.5      c-0.8,1.1-1.2,1.6-2.5,1.9c-0.5,0.1-1.4,0.3-1.9,0.4c-0.8,0.2-2.2,0.6-3,0.6c-0.2,0-0.4,0-0.5,0c-1.1-0.2-1.9-0.2-3.2-1.9      c-1.9-2.2-1.7-2.6-1.8-5.6c0-0.3-0.1-0.8-0.5-0.8c-0.3,0-0.5,0.6-0.6,1.6c-0.1,1.1-0.4,2.2-0.9,2.2c-0.4,0-0.6-0.1-1.2-0.2      c-0.7-0.2-2.4-0.8-3.3-1.1c-1.2-0.4-2.4-0.7-2.9-1.8c-0.2-0.5-0.6-1.5-0.8-1.9c-0.1-0.3-0.3-0.5-0.5-0.5c-0.3,0-0.4,0.4-0.4,0.7      c0,0.3-0.1,1.1-0.2,1.6c-0.2,2.1-0.6,3-1.5,4.2c-0.4,0.5-0.8,1.1-1.2,1.7c-0.9,1.2-1.5,2.5-1.5,4.9c0,0.2,0,1.1,0,1.5      C14.4,55.6,15.3,57.4,21.3,62.2 M42.9,51.2c-0.3,0.1-0.8,0.2-3.3,0.2c-3.7,0-4.4-0.9-4.4-1.6c0-1.2,5.4-2.1,7.5-2.1      c2,0,2.9,0.7,2.9,1.1C45.6,49.4,44.7,50.8,42.9,51.2 M35.7,28.1c0-0.9-1-2.1-2.7-2.1c-1.5,0-2.7,1.1-3,2      c0.4,0.7,0.7,1.4,2.1,1.9c0.2,0.1,0.4,0.1,0.4,0.2c0,0.2-0.2,0.3-0.8,0.3c-1.6,0-2.6-0.7-3-1.2c-0.4,0.1-0.9,0.2-1.5,0.2      c-0.5,0-0.7-0.3-0.7-0.8c0-0.3,0.1-0.6,0.3-1c0.1-0.2,0.2-0.4,0.3-0.5c0.3-0.5,0.6-1.6,2.1-2.5c0.2-0.1,0.6-0.4,0.9-0.5      c0.8-0.5,1.5-0.6,2.5-0.6h0.7c1.2,0,1.8,0.3,2.3,0.8c1.1,0.9,1.7,1.4,1.7,2.1c0,0.7,0,1.3-0.6,2.1c-0.5,0.7-1.3,1.1-1.7,1.1      c-0.1,0-0.2-0.1-0.2-0.1c0-0.1,0.1-0.2,0.2-0.2C35.4,29,35.5,28.4,35.7,28.1 M20.6,23.3c0.4,0,0.7-0.2,1.2-0.9      c1.3-1.4,2.5-1.6,2.5-2.2c0-0.3-0.2-0.5-0.3-0.8c-1.3-2.1-1.9-3.2-2.7-4.7c-0.3-0.5-0.7-0.9-0.9-0.9c-0.5,0-0.9,0.5-1.2,1      c-0.4,0.7-0.8,1.4-0.8,2.1c0,1,0.2,2.8,0.7,4C19.4,22.2,20,23.3,20.6,23.3 M44.8,20.5c-0.1,0-0.3-0.1-0.3-0.3      c0-0.2,0.2-0.5,0.5-1c0.8-1.1,2-2.5,2.4-2.5c0.2,0,0.3,0.1,0.6,0.6c0.1,0.3,0.3,0.8,0.3,1.2c0,1.5-0.5,2.5-1.3,3.7      C46.6,21.9,45.9,21.2,44.8,20.5 M43.4,42.9c0-0.5,0.4-1.3,0.4-2c0-0.8-1-1.1-1.8-1.2c-1.6-0.2-2.2-0.2-2.2-0.5      c0-0.3,0.2-0.5,0.5-0.9c0.4-0.6,1.5-0.9,2.1-1c0.7-0.1,1.6-0.2,2.5-0.2c1.1,0,2,0.2,2.5,0.2c1,0.2,1.2,0.6,1.2,1.1v0.5      c0,0.5-0.4,0.7-1.1,0.9c-0.2,0-0.4,0.1-0.5,0.1c-0.5,0.1-1.1,0.2-1.4,0.9c-0.5,1.4-1.3,2.5-1.9,2.4      C43.5,43.1,43.4,43.1,43.4,42.9"/>
				<path id="Fill-6" class="st4" d="M40.3,61.2c0.1-0.9,0.5-2.5,0.5-3.2c0-0.3-0.1-0.4-0.3-0.4c-0.3,0-0.9,0.5-1.6,1.3      c-0.9,1-2,2-3,3.1c-2.5,2.6-2.4,4.8-2.4,8.4c2.8-1.7,5.3-3.3,7.1-4.5C40.3,64.3,40.1,63.2,40.3,61.2 M14.3,52c0-0.4,0-1.3,0-1.5      c0-2.4,0.5-3.7,1.5-4.9c0.5-0.6,0.8-1.1,1.2-1.7c0.9-1.2,1.3-2.1,1.5-4.2c0-0.5,0.1-1.3,0.2-1.6c0-0.3,0.1-0.7,0.4-0.7      c0.2,0,0.3,0.2,0.5,0.5c0.2,0.5,0.6,1.4,0.8,1.9c0.5,1.1,1.6,1.4,2.9,1.8c0.9,0.3,2.6,0.9,3.3,1.1c0.6,0.2,0.8,0.2,1.2,0.2      c0.5,0,0.8-1.1,0.9-2.2c0.1-0.9,0.3-1.6,0.6-1.6c0.4,0,0.5,0.4,0.5,0.8c0.1,3-0.1,3.3,1.8,5.6c1.4,1.6,2.1,1.7,3.2,1.9      c-0.4-0.1-0.9-0.6-0.9-1.6v-1.1c0-0.5,0.1-1.1,0.3-1.7c0.1-0.3,0.3-0.8,0.4-1.2c0.2-0.6,0.1-0.7,0.1-1.1c0-0.4-0.1-0.8-0.5-1.8      c-0.2-0.5-0.4-1.2-0.6-1.9c-0.7-1.9-1-2.3-3.2-2.6c-0.7-0.1-3.9-0.5-4.6-0.6c-2.5-0.4-4.5-0.5-5.6-2.2c-1.2-2-1.1-4.5-2.3-4.5      c-0.6,0-0.9,0.6-0.9,1.6c0,1,0.4,2.5,0.4,5.3c0,2.4-0.2,3-1.6,4.8c-0.4,0.5-0.8,1.1-1.1,1.5c-1,1.3-1.5,2-1.4,3.5      C13.4,47.7,14,50.6,14.3,52 M41.6,35.6c0.1,0.2,0.2,0.5,0.2,0.7c0,0.5-0.1,0.6-0.4,0.9c-0.2,0.1-0.3,0.3-0.5,0.4      c-0.3,0.1-0.5,0.3-0.6,0.5c-0.3,0.4-0.5,0.7-0.5,0.9c0,0.1,0,0.1,0.1,0.2c-0.4-0.3-0.5-0.7-0.5-1.1c0-0.3,0.1-0.5,0.1-0.8      c0-0.3-0.1-0.5-0.1-0.7c-0.5-1.7-1.4-3.7-1.9-5.1c-0.5-1.4-1-2.2-1.6-2.2c-0.3,0-0.6,0.2-1,0.2c0.5,0,1.2-0.4,1.7-1.1      c0.6-0.8,0.6-1.4,0.6-2.1c0-0.3-0.1-0.6-0.4-0.9c0.8,0.8,1.3,1.8,1.8,2.9C39.8,30.9,40.8,33.6,41.6,35.6 M49.6,30.6      c0.1,0.3,0.3,0.9,0.4,1c0.2,0.6,0.5,1.4,0.5,2.3c0,1-0.1,1.3-0.3,2.3c-0.3,1.3-0.5,1.8-0.6,2.5c-0.1-0.2-1.9-3.4-2.1-3.6      c-0.1-0.3-0.3-0.5-0.3-0.8c0-0.3,0.1-0.5,0.5-0.8c0.2-0.1,0.5-0.3,0.7-0.4c0.9-0.5,1.2-1.1,1.2-1.7      C49.7,31.1,49.7,30.9,49.6,30.6"/>
				<path id="Fill-8" class="st3" d="M162.7,12.4c-0.3-0.1-1.5-0.5-2.6-0.5c-2.3,0-3.3,1.3-3.3,2.4c0,1.5,1.1,2.2,2.4,2.5l2,0.5      c2.8,0.7,5.9,1.9,5.9,6.1c0,3.8-2.5,6.4-7.9,6.4c-2.1,0-4.3-0.2-6.9-1.1v-5.3h3.6V26c0.6,0.2,2.2,0.6,3.6,0.6      c2.1,0,3.2-0.9,3.2-2.4c0-1.3-0.7-2.2-3.3-2.9l-1.7-0.5c-3.9-1.1-5.3-3-5.3-6.1c0-3.2,2.1-5.7,7.6-5.7c2.3,0,4.7,0.4,6.3,1.1      v4.8h-3.6V12.4z M188.8,23.1c-3.3,0-4.3,0.7-4.3,2c0,0.9,0.6,1.8,2.2,1.8c1.6,0,3.2-1.3,3.2-3.8H188.8z M190,19.9      c0-2.1-1-2.9-3-2.9c-1.3,0-2.2,0.3-2.5,0.4v2h-3.3v-3.8c0.5-0.3,3-1.6,5.7-1.6c4.2,0,6.9,1.7,6.9,5.9v6.5h1.6v2.9h-4.9l-0.1-2.1      h-0.1c-0.3,0.4-1.4,2.4-4.8,2.4c-3.4,0-5-2-5-4.4c0-2.9,2.2-4.8,7.7-4.8h1.8V19.9z M170.9,11.2h4v3.2h4v2.9h-4v6.7      c0,2,0.7,2.7,2.4,2.7c0.6,0,1.5-0.2,1.8-0.2v2.9c-0.3,0.1-1.8,0.5-3.3,0.5c-3,0-4.9-1.6-4.9-4.2v-8.2h-2v-2.9h2V11.2z       M198.1,11.2h4v3.2h4v2.9h-4v6.7c0,2,0.7,2.7,2.4,2.7c0.6,0,1.5-0.2,1.8-0.2v2.9c-0.3,0.1-1.8,0.5-3.3,0.5c-3,0-4.9-1.6-4.9-4.2      v-8.2h-2v-2.9h2V11.2z M133.7,17.4h-2v-2.9h5.5l0.1,2h0.1c0.3-0.4,1.6-2.3,4.6-2.3c3.8,0,5.8,2.7,5.8,6v6.5h1.7v2.9h-7.4v-2.9      h1.6v-5.8c0-2.1-1.2-3.2-3.1-3.2c-1.7,0-3.1,1-3.1,3.2v5.8h1.7v2.9h-7.4v-2.9h1.6V17.4z M114.1,17.4h-2v-2.9h5.5l0.1,2h0.1      c0.3-0.4,1.6-2.3,4.6-2.3c3.8,0,5.8,2.7,5.8,6v6.5h1.7v2.9h-7.4v-2.9h1.6v-5.8c0-2.1-1.2-3.2-3.1-3.2c-1.7,0-3.1,1-3.1,3.2v5.8      h1.7v2.9h-7.4v-2.9h1.6V17.4z M217.7,20.1c0-2.1-1.2-3.3-3.1-3.3c-1.8,0-2.9,1.2-3.1,3.3H217.7z M211.6,22.9      c0.1,2.4,2,3.9,4.8,3.9c2.5,0,4-0.7,4.7-1v3.1c-0.6,0.2-2.3,1-5.6,1c-5.8,0-8.3-3.6-8.3-7.8c0-4.7,2.9-8,7.6-8      c5.2,0,7.3,3.9,7.3,8.8H211.6z M105.9,20.1c0-2.1-1.2-3.3-3.1-3.3c-1.8,0-2.9,1.2-3.1,3.3H105.9z M99.8,22.9      c0.1,2.4,2,3.9,4.8,3.9c2.5,0,4-0.7,4.7-1v3.1c-0.6,0.2-2.3,1-5.6,1c-5.8,0-8.3-3.6-8.3-7.8c0-4.7,2.9-8,7.6-8      c5.2,0,7.3,3.9,7.3,8.8H99.8z M86.8,18.8c2.1,0,3.5-1.2,3.5-3.3c0-1.9-1.2-3.3-3.5-3.3h-2.6v6.5H86.8z M80,12.3h-2V9.3h9.3      c4.9,0,7.4,2.6,7.4,6.2c0,4.3-3.4,6.2-7.4,6.2h-3.1v4.8h2v2.9H78v-2.9h2V12.3z"/>
				<path id="Eberly-College-of-Science-Copy" class="st3" d="M84.5,46.2v1.4h-5.3v4.9h5.9V54h-7.6V40.5h7.3v1.5h-5.6v4.3H84.5z       M88.8,54h-1.5c0-0.7,0.1-1.6,0.1-2.5V39.7h1.7v6.1h0c0.6-1.1,1.7-1.8,3.3-1.8c2.4,0,4.1,2,4.1,5c0,3.5-2.2,5.2-4.4,5.2      c-1.4,0-2.5-0.5-3.3-1.8h-0.1L88.8,54z M89.1,48.4v1.7c0,0.2,0,0.4,0.1,0.6c0.3,1.2,1.4,2.1,2.7,2.1c1.8,0,3-1.5,3-3.7      c0-1.9-1-3.6-2.9-3.6c-1.2,0-2.3,0.8-2.7,2.2C89.1,47.8,89.1,48.1,89.1,48.4z M106.5,49.5h-6.8c0,2.4,1.6,3.4,3.3,3.4      c1.3,0,2-0.2,2.7-0.5l0.3,1.3c-0.6,0.3-1.7,0.6-3.2,0.6c-3,0-4.8-2-4.8-4.9c0-2.9,1.7-5.2,4.6-5.2c3.2,0,4,2.8,4,4.6      C106.6,49,106.5,49.3,106.5,49.5z M99.7,48.2h5.2c0-1.1-0.5-2.9-2.5-2.9C100.6,45.3,99.9,47,99.7,48.2z M108.7,54v-6.7      c0-1.1,0-2.1-0.1-3h1.5l0.1,1.9h0.1c0.4-1.3,1.5-2.1,2.7-2.1c0.2,0,0.3,0,0.5,0.1v1.7c-0.2,0-0.4-0.1-0.6-0.1      c-1.2,0-2.1,0.9-2.4,2.3c0,0.2-0.1,0.5-0.1,0.8V54H108.7z M115.3,54V39.7h1.8V54H115.3z M118.8,44.3h1.9l2.1,5.7      c0.2,0.6,0.5,1.4,0.6,2h0c0.2-0.6,0.4-1.3,0.6-2l1.9-5.7h1.9l-2.7,6.9c-1.3,3.3-2.1,5-3.3,6.1c-0.9,0.8-1.7,1.1-2.2,1.1      l-0.4-1.5c0.4-0.1,1-0.4,1.5-0.9c0.5-0.4,1.1-1.1,1.5-2c0.1-0.2,0.1-0.3,0.1-0.4s0-0.2-0.1-0.5L118.8,44.3z M142.9,52.2l0.4,1.4      c-0.6,0.3-1.9,0.6-3.6,0.6c-3.8,0-6.7-2.4-6.7-6.9c0-4.2,2.9-7.1,7.1-7.1c1.7,0,2.8,0.4,3.2,0.6l-0.4,1.4      c-0.7-0.3-1.6-0.6-2.7-0.6c-3.2,0-5.3,2-5.3,5.6c0,3.3,1.9,5.4,5.2,5.4C141.1,52.7,142.1,52.5,142.9,52.2z M149.2,44.1      c2.8,0,4.7,2,4.7,5c0,3.6-2.5,5.2-4.8,5.2c-2.6,0-4.7-1.9-4.7-5C144.4,46,146.5,44.1,149.2,44.1z M149.2,45.4      c-2.1,0-3,1.9-3,3.8c0,2.1,1.2,3.7,3,3.7c1.7,0,3-1.6,3-3.8C152.1,47.5,151.2,45.4,149.2,45.4z M156.1,54V39.7h1.8V54H156.1z       M160.8,54V39.7h1.8V54H160.8z M173.3,49.5h-6.8c0,2.4,1.6,3.4,3.3,3.4c1.3,0,2-0.2,2.7-0.5l0.3,1.3c-0.6,0.3-1.7,0.6-3.2,0.6      c-3,0-4.8-2-4.8-4.9c0-2.9,1.7-5.2,4.6-5.2c3.2,0,4,2.8,4,4.6C173.4,49,173.3,49.3,173.3,49.5z M166.5,48.2h5.2      c0-1.1-0.5-2.9-2.5-2.9C167.4,45.3,166.6,47,166.5,48.2z M182.3,44.3h1.5c0,0.7-0.1,1.5-0.1,2.7v5.6c0,2.2-0.4,3.6-1.4,4.4      c-0.9,0.9-2.3,1.2-3.5,1.2c-1.2,0-2.5-0.3-3.2-0.8l0.4-1.3c0.6,0.4,1.6,0.8,2.9,0.8c1.8,0,3.1-0.9,3.1-3.4v-1.1h0      c-0.5,0.9-1.6,1.6-3.1,1.6c-2.4,0-4.1-2-4.1-4.7c0-3.3,2.1-5.2,4.4-5.2c1.7,0,2.6,0.9,3,1.7h0L182.3,44.3z M182.1,49.9v-1.7      c0-0.3,0-0.6-0.1-0.8c-0.3-1-1.2-1.9-2.5-1.9c-1.7,0-2.9,1.4-2.9,3.7c0,1.9,1,3.5,2.9,3.5c1.1,0,2.1-0.7,2.5-1.8      C182,50.5,182.1,50.2,182.1,49.9z M194.5,49.5h-6.8c0,2.4,1.6,3.4,3.3,3.4c1.3,0,2-0.2,2.7-0.5l0.3,1.3      c-0.6,0.3-1.7,0.6-3.2,0.6c-3,0-4.8-2-4.8-4.9c0-2.9,1.7-5.2,4.6-5.2c3.2,0,4,2.8,4,4.6C194.6,49,194.5,49.3,194.5,49.5z       M187.7,48.2h5.2c0-1.1-0.5-2.9-2.5-2.9C188.6,45.3,187.8,47,187.7,48.2z M205.1,44.1c2.8,0,4.7,2,4.7,5c0,3.6-2.5,5.2-4.8,5.2      c-2.6,0-4.7-1.9-4.7-5C200.2,46,202.4,44.1,205.1,44.1z M205,45.4c-2.1,0-3,1.9-3,3.8c0,2.1,1.2,3.7,3,3.7c1.7,0,3-1.6,3-3.8      C207.9,47.5,207.1,45.4,205,45.4z M213.9,54h-1.7v-8.4h-1.4v-1.3h1.4v-0.5c0-1.4,0.3-2.6,1.1-3.4c0.7-0.6,1.5-0.9,2.4-0.9      c0.6,0,1.2,0.1,1.5,0.3l-0.2,1.4c-0.3-0.1-0.6-0.2-1.1-0.2c-1.5,0-1.9,1.3-1.9,2.8v0.5h2.4v1.3h-2.4V54z M221.4,53.3l0.4-1.5      c0.8,0.5,1.9,0.9,3.1,0.9c1.8,0,2.8-0.9,2.8-2.3c0-1.3-0.7-2-2.6-2.7c-2.2-0.8-3.6-1.9-3.6-3.8c0-2.1,1.7-3.7,4.4-3.7      c1.4,0,2.4,0.3,3,0.7l-0.5,1.4c-0.4-0.2-1.3-0.6-2.6-0.6c-1.8,0-2.6,1.1-2.6,2c0,1.3,0.8,1.9,2.7,2.6c2.3,0.9,3.5,2,3.5,4      c0,2.1-1.5,3.9-4.7,3.9C223.5,54.2,222.1,53.8,221.4,53.3z M238.6,52.3l0.3,1.3c-0.5,0.2-1.5,0.6-2.8,0.6c-2.9,0-4.8-2-4.8-5      c0-3,2-5.2,5.2-5.2c1,0,2,0.3,2.5,0.5l-0.4,1.4c-0.4-0.2-1.1-0.5-2-0.5c-2.2,0-3.4,1.6-3.4,3.7c0,2.3,1.4,3.6,3.4,3.6      C237.4,52.8,238.1,52.5,238.6,52.3z M242.7,54h-1.8v-9.7h1.8V54z M241.8,40.4c0.7,0,1.1,0.5,1.1,1.1c0,0.6-0.4,1.1-1.1,1.1      c-0.6,0-1.1-0.5-1.1-1.1C240.7,40.9,241.2,40.4,241.8,40.4z M253.4,49.5h-6.8c0,2.4,1.6,3.4,3.3,3.4c1.3,0,2-0.2,2.7-0.5      l0.3,1.3c-0.6,0.3-1.7,0.6-3.2,0.6c-3,0-4.8-2-4.8-4.9c0-2.9,1.7-5.2,4.6-5.2c3.2,0,4,2.8,4,4.6C253.5,49,253.4,49.3,253.4,49.5      z M246.6,48.2h5.2c0-1.1-0.5-2.9-2.5-2.9C247.5,45.3,246.7,47,246.6,48.2z M255.6,54v-7.1c0-1,0-1.8-0.1-2.6h1.6l0.1,1.6h0      c0.5-0.9,1.6-1.8,3.2-1.8c1.3,0,3.4,0.8,3.4,4.1V54h-1.8v-5.6c0-1.6-0.6-2.9-2.3-2.9c-1.2,0-2.1,0.8-2.4,1.8      c-0.1,0.2-0.1,0.5-0.1,0.8V54H255.6z M273.4,52.3l0.3,1.3c-0.5,0.2-1.5,0.6-2.8,0.6c-2.9,0-4.8-2-4.8-5c0-3,2-5.2,5.2-5.2      c1,0,2,0.3,2.5,0.5l-0.4,1.4c-0.4-0.2-1.1-0.5-2-0.5c-2.2,0-3.4,1.6-3.4,3.7c0,2.3,1.4,3.6,3.4,3.6      C272.2,52.8,272.9,52.5,273.4,52.3z M283.4,49.5h-6.8c0,2.4,1.6,3.4,3.3,3.4c1.3,0,2-0.2,2.7-0.5l0.3,1.3      c-0.6,0.3-1.7,0.6-3.2,0.6c-3,0-4.8-2-4.8-4.9c0-2.9,1.7-5.2,4.6-5.2c3.2,0,4,2.8,4,4.6C283.4,49,283.4,49.3,283.4,49.5z       M276.6,48.2h5.2c0-1.1-0.5-2.9-2.5-2.9C277.5,45.3,276.7,47,276.6,48.2z"/>
			</g>
		</g>
	</g>
</g>
</svg>