<svg width="188" height="60" viewBox="0 0 188 60" version="1.1" xmlns="http://www.w3.org/2000/svg" xmlns:xlink="http://www.w3.org/1999/xlink"><title>logo-desktop</title><desc>Created with Sketch.</desc><g id="Page-1" stroke="none" stroke-width="1" fill="none" fill-rule="evenodd"><g id="Logos" transform="translate(-20.000000, -16.000000)" fill="#BE1831" fill-rule="nonzero"><g id="logo-desktop" transform="translate(20.000000, 16.000000)"><path d="M29.9534556,4.22284908 C15.8293371,4.22284908 4.3370945,15.7150917 4.3370945,29.8392102 C4.3370945,43.9633286 15.8293371,55.4555712 29.9534556,55.4555712 C44.077574,55.4555712 55.5698166,43.9633286 55.5698166,29.8392102 C55.5698166,15.7108604 44.077574,4.22284908 29.9534556,4.22284908 Z M33.9943583,27.3004231 L34.5275035,26.7672779 C34.6375176,26.6572638 35.0267983,26.6191819 35.2425952,26.8349788 L37.9421721,29.5345557 C38.157969,29.7503526 38.1156559,30.1438646 38.0098731,30.2496474 L37.4767278,30.7827927 C37.1509168,31.0747532 36.4104372,31.0578279 36.1946403,30.842031 L33.9308886,28.5782793 C33.719323,28.3667137 33.7023977,27.6262341 33.9943583,27.3004231 Z M30,0.0126939351 C46.5359661,0.0126939351 59.9873061,13.4640339 59.9873061,30 C59.9873061,46.5359661 46.5359661,59.9873061 30,59.9873061 C13.4640339,59.9873061 0.0126939351,46.5359661 0.0126939351,30 C0.0126939351,13.4640339 13.4640339,0.0126939351 30,0.0126939351 Z M29.9534556,2.90691114 C15.1057828,2.90691114 3.02538787,14.9873061 3.02538787,29.8349788 C3.02538787,44.6826516 15.1057828,56.7630465 29.9534556,56.7630465 C44.8011283,56.7630465 56.8815233,44.6826516 56.8815233,29.8349788 C56.8815233,14.9873061 44.8011283,2.90691114 29.9534556,2.90691114 Z M20.9407616,13.6755994 C25.6629055,13.6755994 29.8476728,16.6798307 31.3624824,21.1523272 C31.6121298,21.8885755 31.2143865,22.6840621 30.4823695,22.9337094 C29.7461213,23.1833568 28.9506347,22.7856135 28.7009873,22.0535966 C27.5712271,18.7235543 24.4569817,16.4894217 20.9407616,16.4894217 C16.425952,16.4894217 12.7531735,20.1622003 12.7531735,24.6770099 C12.7531735,26.6530324 13.4682652,28.561354 14.7672779,30.0507757 L30.0253879,45.2877292 L34.0959097,41.22567 C34.0366714,41.0860367 33.9816643,40.9464034 33.9351199,40.7983075 L32.3695346,40.7983075 C31.5909732,40.7983075 30.9647391,40.167842 30.9647391,39.393512 C30.9647391,38.6149506 31.5952045,37.9887165 32.3695346,37.9887165 L34.0366714,37.9887165 C34.6544429,36.4315938 36.1734838,35.3314528 37.9464034,35.3314528 C38.551481,35.3314528 39.1269394,35.4583921 39.6473907,35.6911142 L39.7912553,35.5472496 L39.787024,35.5430183 L43.4471086,31.9294781 C43.5655853,31.7559944 43.954866,31.1086037 43.6755994,30.1734838 C43.574048,29.8307475 43.2101551,29.4118477 42.8335684,29.0141044 C42.3977433,28.5528914 41.7207334,27.8504937 41.0733427,27.1861777 L39.2200282,29.0394922 C38.9830748,29.2764457 38.5980254,29.2764457 38.3610719,29.0394922 L35.7376587,26.416079 C35.5007052,26.1791255 35.5007052,25.7940762 35.7376587,25.5571227 L41.4245416,19.8787024 C41.6614951,19.6417489 42.0465444,19.6417489 42.2834979,19.8787024 L42.9647391,20.5599436 L43.5698166,19.954866 L42.9435825,19.3286319 C42.6812412,19.0662906 42.6812412,18.6389281 42.9435825,18.3765867 L43.3667137,17.9534556 C43.629055,17.6911142 44.0564175,17.6911142 44.3187588,17.9534556 L46.8406206,20.4753173 C47.0987306,20.7376587 47.0987306,21.1607898 46.8363893,21.4231312 L46.4132581,21.8462623 C46.1509168,22.1086037 45.7235543,22.1086037 45.461213,21.8462623 L44.8349788,21.2200282 L44.2299013,21.8251058 L44.9026798,22.4978843 C45.1396333,22.7348378 45.1396333,23.1198872 44.9026798,23.3568406 L43.0705219,25.1889986 C43.7306065,25.8702398 44.4287729,26.5937941 44.8857546,27.0761636 C45.5035261,27.7277856 46.112835,28.4598025 46.3794076,29.3737659 C46.9802539,31.4090268 46.1593794,33.0973202 45.5754584,33.77433 L45.5373766,33.8166432 L41.9365303,37.370945 L41.9407616,37.3751763 L41.6953456,37.6205924 C41.9915374,38.1960508 42.1565585,38.8434415 42.1565585,39.5331453 C42.1565585,41.8519041 40.2693935,43.7390691 37.9506347,43.7390691 C37.2566996,43.7390691 36.6050776,43.5698166 36.0296192,43.2736248 L30.0296192,49.2566996 L12.6897038,31.9421721 C10.9167842,29.932299 9.94358251,27.3511989 9.94358251,24.6727786 C9.94358251,18.6093089 14.877292,13.6755994 20.9407616,13.6755994 Z M25.0916784,42.4062059 L24.8885755,42.8251058 L24.4273625,42.8928068 L24.7574048,43.2186178 L24.6812412,43.6755994 L25.0916784,43.4598025 L25.506347,43.6755994 L25.425952,43.2186178 L25.7602257,42.8928068 L25.2990127,42.8251058 L25.0916784,42.4062059 Z M23.8349788,41.2468265 C23.4844455,41.2468265 23.2002821,41.5309899 23.2002821,41.8815233 C23.2002821,42.2320566 23.4844455,42.51622 23.8349788,42.51622 C24.1855122,42.51622 24.4696756,42.2320566 24.4696756,41.8815233 C24.4696756,41.5309899 24.1855122,41.2468265 23.8349788,41.2468265 Z M25.2236797,40.995168 L24.9035399,41.3153078 L26.0554447,42.4672126 L26.3755845,42.1470728 L25.2236797,40.995168 Z M21.982957,40.0557719 L21.6628172,40.3759117 L22.814722,41.5278165 L23.1348618,41.2076767 L21.982957,40.0557719 Z M37.954866,38.1410437 C37.1889986,38.1410437 36.5627645,38.7672779 36.5627645,39.5331453 C36.5627645,40.303244 37.1889986,40.9252468 37.954866,40.9252468 C38.7207334,40.9252468 39.3469676,40.2990127 39.3469676,39.5331453 C39.3469676,38.7672779 38.7207334,38.1410437 37.954866,38.1410437 Z M23.8307475,39.5543018 L23.6234133,39.9732017 L23.1622003,40.0409027 L23.4964739,40.3667137 L23.416079,40.8236953 L23.8307475,40.6078984 L24.2411848,40.8236953 L24.1607898,40.3667137 L24.4950635,40.0409027 L24.0338505,39.9732017 L23.8307475,39.5543018 Z M22.5698166,38.3737659 C22.2192833,38.3737659 21.9351199,38.6579293 21.9351199,39.0084626 C21.9351199,39.358996 22.2192833,39.6431594 22.5698166,39.6431594 C22.92035,39.6431594 23.2045134,39.358996 23.2045134,39.0084626 C23.2045134,38.6579293 22.92035,38.3737659 22.5698166,38.3737659 Z M79.064,20.864 C81.336,20.864 83.208,21.432 84.68,22.568 C84.92,22.76 85.092,22.956 85.196,23.156 C85.3,23.356 85.352,23.6 85.352,23.888 C85.352,24.288 85.228,24.64 84.98,24.944 C84.732,25.248 84.448,25.4 84.128,25.4 C83.952,25.4 83.788,25.376 83.636,25.328 C83.484,25.28 83.272,25.176 83,25.016 C82.344,24.6 81.74,24.288 81.188,24.08 C80.636,23.872 79.936,23.768 79.088,23.768 C78.112,23.768 77.344,23.956 76.784,24.332 C76.224,24.708 75.944,25.224 75.944,25.88 C75.944,26.264 76.052,26.58 76.268,26.828 C76.484,27.076 76.844,27.296 77.348,27.488 C77.852,27.68 78.568,27.88 79.496,28.088 C81.672,28.568 83.236,29.184 84.188,29.936 C85.14,30.688 85.616,31.72 85.616,33.032 C85.616,34.056 85.332,34.96 84.764,35.744 C84.196,36.528 83.396,37.136 82.364,37.568 C81.332,38 80.136,38.216 78.776,38.216 C77.512,38.216 76.336,38.068 75.248,37.772 C74.16,37.476 73.272,37.056 72.584,36.512 C72.344,36.336 72.172,36.148 72.068,35.948 C71.964,35.748 71.912,35.496 71.912,35.192 C71.912,34.792 72.036,34.44 72.284,34.136 C72.532,33.832 72.816,33.68 73.136,33.68 C73.312,33.68 73.484,33.708 73.652,33.764 C73.82,33.82 74.024,33.92 74.264,34.064 C74.952,34.496 75.648,34.812 76.352,35.012 C77.056,35.212 77.832,35.312 78.68,35.312 C79.736,35.312 80.544,35.136 81.104,34.784 C81.664,34.432 81.944,33.928 81.944,33.272 C81.944,32.776 81.684,32.376 81.164,32.072 C80.644,31.768 79.72,31.48 78.392,31.208 C76.904,30.904 75.716,30.536 74.828,30.104 C73.94,29.672 73.292,29.136 72.884,28.496 C72.476,27.856 72.272,27.08 72.272,26.168 C72.272,25.16 72.564,24.252 73.148,23.444 C73.732,22.636 74.54,22.004 75.572,21.548 C76.604,21.092 77.768,20.864 79.064,20.864 Z M185.16,21.08 L185.351852,21.0843704 C186.407951,21.1339012 186.936,21.6044444 186.936,22.496 C186.936,23.456 186.344,23.936 185.16,23.936 L185.16,23.936 L179.328,23.936 L179.328,27.704 L179.56248,27.58088 C180.27816,27.23096 181.104,27.056 182.04,27.056 C183.08,27.056 184.008,27.284 184.824,27.74 C185.64,28.196 186.272,28.832 186.72,29.648 C187.168,30.464 187.392,31.408 187.392,32.48 C187.392,33.6 187.128,34.592 186.6,35.456 C186.072,36.32 185.332,36.992 184.38,37.472 C183.428,37.952 182.328,38.192 181.08,38.192 C180.088,38.192 179.12,38.04 178.176,37.736 C177.232,37.432 176.416,37.008 175.728,36.464 C175.488,36.288 175.32,36.1 175.224,35.9 C175.128,35.7 175.08,35.456 175.08,35.168 C175.08,34.752 175.196,34.396 175.428,34.1 C175.66,33.804 175.944,33.656 176.28,33.656 C176.472,33.656 176.648,33.684 176.808,33.74 C176.968,33.796 177.176,33.896 177.432,34.04 C178.072,34.424 178.656,34.724 179.184,34.94 C179.712,35.156 180.288,35.264 180.912,35.264 C181.888,35.264 182.628,35.04 183.132,34.592 C183.636,34.144 183.888,33.48 183.888,32.6 C183.888,31.768 183.628,31.112 183.108,30.632 C182.588,30.152 181.888,29.912 181.008,29.912 C180.464,29.912 179.968,29.98 179.52,30.116 C179.072,30.252 178.584,30.48 178.056,30.8 C177.72,30.992 177.384,31.088 177.048,31.088 C176.664,31.088 176.34,30.972 176.076,30.74 C175.812,30.508 175.68,30.2 175.68,29.816 L175.68,29.816 L175.68,22.832 L175.68563,22.6500741 C175.715654,22.1775802 175.865778,21.8062222 176.136,21.536 C176.44,21.232 176.872,21.08 177.432,21.08 L177.432,21.08 L185.16,21.08 Z M99.312,21.08 L99.5087407,21.0844444 C100.01758,21.1081481 100.4,21.2266667 100.656,21.44 C100.944,21.68 101.088,22.056 101.088,22.568 C101.088,23.064 100.944,23.432 100.656,23.672 C100.368,23.912 99.92,24.032 99.312,24.032 L99.312,24.032 L93,24.032 L93,27.92 L98.832,27.92 L99.0287407,27.9244444 C99.5375802,27.9481481 99.92,28.0666667 100.176,28.28 C100.464,28.52 100.608,28.896 100.608,29.408 C100.608,29.904 100.464,30.272 100.176,30.512 C99.888,30.752 99.44,30.872 98.832,30.872 L98.832,30.872 L93,30.872 L93,36.272 L92.9939259,36.4595556 C92.9615309,36.9478519 92.7995556,37.3413333 92.508,37.64 C92.18,37.976 91.736,38.144 91.176,38.144 C90.616,38.144 90.164,37.972 89.82,37.628 C89.476,37.284 89.304,36.832 89.304,36.272 L89.304,36.272 L89.304,22.832 L89.3096296,22.6500741 C89.3396543,22.1775802 89.4897778,21.8062222 89.76,21.536 C90.064,21.232 90.496,21.08 91.056,21.08 L91.056,21.08 L99.312,21.08 Z M152.728,20.96 C153.224,20.96 153.656,21.124 154.024,21.452 C154.392,21.78 154.576,22.232 154.576,22.808 L154.576,22.808 L154.576,32.048 L155.464,32.048 L155.653259,32.0523704 C156.695086,32.1019012 157.216,32.5724444 157.216,33.464 C157.216,34.424 156.632,34.904 155.464,34.904 L155.464,34.904 L154.576,34.904 L154.576,36.272 L154.569778,36.4693333 C154.536593,36.9813333 154.370667,37.3795556 154.072,37.664 C153.736,37.984 153.296,38.144 152.752,38.144 C152.208,38.144 151.768,37.984 151.432,37.664 C151.096,37.344 150.928,36.88 150.928,36.272 L150.928,36.272 L150.928,34.904 L145.096,34.904 L144.914875,34.8970625 C144.503625,34.8646875 144.172,34.719 143.92,34.46 C143.632,34.164 143.488,33.792 143.488,33.344 C143.488,32.896 143.64,32.448 143.944,32 L143.944,32 L151.096,21.776 L151.21696,21.62096 C151.38592,21.42512 151.5856,21.2728 151.816,21.164 C152.104,21.028 152.408,20.96 152.728,20.96 Z M111.832,21.08 L112.179147,21.0852267 C113.776516,21.1340089 115.0568,21.5242667 116.02,22.256 C117.052,23.04 117.568,24.112 117.568,25.472 C117.568,26.352 117.332,27.124 116.86,27.788 C116.388,28.452 115.736,28.936 114.904,29.24 C115.88,29.528 116.636,30.028 117.172,30.74 C117.708,31.452 117.976,32.328 117.976,33.368 C117.976,34.792 117.452,35.92 116.404,36.752 C115.356,37.584 113.912,38 112.072,38 L112.072,38 L105.784,38 L105.602074,37.9943704 C105.12958,37.9643457 104.758222,37.8142222 104.488,37.544 C104.184,37.24 104.032,36.808 104.032,36.248 L104.032,36.248 L104.032,22.832 L104.03763,22.6500741 C104.067654,22.1775802 104.217778,21.8062222 104.488,21.536 C104.792,21.232 105.224,21.08 105.784,21.08 L105.784,21.08 L111.832,21.08 Z M135.696,20.984 C136.224,20.984 136.656,21.148 136.992,21.476 C137.328,21.804 137.496,22.248 137.496,22.808 L137.496,22.808 L137.496,35 L139.728,35 L139.907568,35.0041219 C140.955856,35.0535845 141.48,35.5482105 141.48,36.488 C141.48,37.496 140.896,38 139.728,38 L139.728,38 L131.52,38 L131.337972,37.9958116 C130.275324,37.9455512 129.744,37.4429474 129.744,36.488 C129.744,35.496 130.336,35 131.52,35 L131.52,35 L133.752,35 L133.752,25.184 L131.64,26.456 L131.496,26.53376 C131.304,26.62592 131.112,26.672 130.92,26.672 C130.52,26.672 130.18,26.504 129.9,26.168 C129.62,25.832 129.48,25.456 129.48,25.04 C129.48,24.48 129.728,24.056 130.224,23.768 L130.224,23.768 L134.016,21.488 L134.226,21.369875 C134.716,21.112625 135.206,20.984 135.696,20.984 Z M165.392,20.864 C166.528,20.864 167.524,21.056 168.38,21.44 C169.236,21.824 169.896,22.372 170.36,23.084 C170.824,23.796 171.056,24.616 171.056,25.544 C171.056,26.52 170.852,27.424 170.444,28.256 C170.036,29.088 169.352,30.016 168.392,31.04 L168.392,31.04 L164.624,35 L170.192,35 L170.374028,35.0041219 C171.436676,35.0535845 171.968,35.5482105 171.968,36.488 C171.968,37.496 171.376,38 170.192,38 L170.192,38 L161.264,38 L161.082688,37.9930625 C160.670563,37.9606875 160.335,37.815 160.076,37.556 C159.78,37.26 159.632,36.888 159.632,36.44 C159.632,35.864 159.864,35.336 160.328,34.856 L160.328,34.856 L165.608,29.264 L165.823063,29.031125 C166.863688,27.872375 167.384,26.798 167.384,25.808 C167.384,25.152 167.2,24.652 166.832,24.308 C166.464,23.964 165.928,23.792 165.224,23.792 C164.616,23.792 164.056,23.896 163.544,24.104 C163.032,24.312 162.44,24.616 161.768,25.016 C161.496,25.176 161.288,25.288 161.144,25.352 C161,25.416 160.832,25.448 160.64,25.448 C160.304,25.448 160.016,25.292 159.776,24.98 C159.536,24.668 159.416,24.304 159.416,23.888 C159.416,23.584 159.468,23.332 159.572,23.132 C159.676,22.932 159.848,22.752 160.088,22.592 C160.808,22.064 161.636,21.644 162.572,21.332 C163.508,21.02 164.448,20.864 165.392,20.864 Z M111.64,30.824 L107.68,30.824 L107.68,35.144 L111.64,35.144 C112.632,35.144 113.352,34.976 113.8,34.64 C114.248,34.304 114.472,33.76 114.472,33.008 C114.472,32.256 114.248,31.704 113.8,31.352 C113.352,31 112.632,30.824 111.64,30.824 L111.64,30.824 Z M150.928,26.768 L147.256,32.048 L150.928,32.048 L150.928,26.768 Z M111.208,23.936 L107.68,23.936 L107.68,27.968 L111.208,27.968 C112.168,27.968 112.876,27.804 113.332,27.476 C113.788,27.148 114.016,26.648 114.016,25.976 C114.016,25.272 113.788,24.756 113.332,24.428 C112.876,24.1 112.168,23.936 111.208,23.936 L111.208,23.936 Z" id="Logo-SFB-1425"/></g></g></g></svg>